<svg id="Layer_1" data-name="Layer 1" xmlns="http://www.w3.org/2000/svg" viewBox="0 0 41.92 40.46"><defs><style>.cls-1{fill:#322a26;}</style></defs><title>arrow--handdrawnDark</title><path class="cls-1" d="M44.53,3.69C34.37,16.35,24,28.83,10,37.36c-1.65,1-.14,3.6,1.51,2.59C25.77,31.28,36.32,18.69,46.65,5.81c1.2-1.49-.91-3.63-2.12-2.12Z" transform="translate(-5.09 -3.18)"/><path class="cls-1" d="M9.43,30.31C8.57,32.6,7.64,34.84,6.59,37c-.7,1.47-1.94,3.38-1.34,5.07.53,1.52,2.08,1.61,3.47,1.48,2.7-.25,5.34-1,8.07-.57,1.89.32,2.7-2.57.8-2.89a17,17,0,0,0-5-.09c-.84.11-1.68.25-2.53.37l-1.3.18c-1,0-1.13,0-.54.19a10.77,10.77,0,0,1,1.18-2.59c.34-.73.67-1.47,1-2.21q1.05-2.41,2-4.87c.68-1.81-2.22-2.59-2.89-.8Z" transform="translate(-5.09 -3.18)"/></svg>