<svg id="Ñëîé_1" data-name="Ñëîé 1" xmlns="http://www.w3.org/2000/svg" viewBox="0 0 9617.9 3337"><defs><style>.cls-1{fill:#9d5f5f;}.cls-2{fill:#afc8fc;}.cls-3{fill:#e3869f;}.cls-4{fill:#fff;}.cls-5{fill:#261253;}.cls-6{fill:#cb6060;}.cls-7{fill:#c3cf8a;}.cls-8{fill:#a9cffc;}.cls-9{fill:#c2a8a8;}.cls-10{fill:#f1cdcd;}.cls-11{fill:#776161;}.cls-12{fill:#b5af8c;}.cls-13{fill:#797e6f;}.cls-14{fill:#999470;}.cls-15{fill:#e697d2;}.cls-16{fill:#fbf4ab;}</style></defs><path class="cls-1" d="M3675.67,3456.72c68.22,80.71,111.06,231.23,150.28,415.7l327.79,80.51-9,96.73c-257.92-42.09-381.65-42.81-414.92-80.28-63.28-71.24-139.29-230.59-139.29-230.59Z" transform="translate(-191.05 -1651.96)"/><path class="cls-2" d="M4011.49,4742.63s-247.27-475.19-415.08-643.53l-320.48-30.75,192.47,738.4Z" transform="translate(-191.05 -1651.96)"/><path class="cls-1" d="M4035.76,4869.16c9.68-104.45-78.36-226.74-78.36-226.74s-133.76-34.64-220.1,58.42L3381,4706.91c-41.22,31.76-42.76,68.42-25.15,107.45l499.5,159.48C3929.89,4999.53,4011,4944,4035.76,4869.16Z" transform="translate(-191.05 -1651.96)"/><path class="cls-1" d="M3203.44,4780.66c-4.91-44.84,11.82-86.9,54.42-125.64,27.19,20.19,114.29,52.62,148.14,51.47l-44.73,104.86Z" transform="translate(-191.05 -1651.96)"/><path class="cls-3" d="M2979.75,4964.13h0c12.61,9.58,29.19,8.42,49.75-8.55,32.89-27.14,47.09-44.35,79.62-83.72,19.26-23.32,107-60.65,107-60.65l.32-.18c14.3-8,18.21-26.34,10.45-41.44-24.26-47.25,8.88-55.07,39.93-105.66.22-11.07-7.73-36.29-28.53-49.83-9.41-6.13-38.67-22.93-38.67-22.93l-219.82,373Z" transform="translate(-191.05 -1651.96)"/><rect class="cls-4" x="2855.22" y="4745.51" width="433.13" height="42.82" transform="translate(-2786.27 3325.88) rotate(-59.33)"/><path class="cls-5" d="M2942.9,4949.86a7.57,7.57,0,0,1-6.5-11.44l220.91-372.56a7.57,7.57,0,1,1,13,7.73l-220.91,372.56A7.57,7.57,0,0,1,2942.9,4949.86Z" transform="translate(-191.05 -1651.96)"/><path class="cls-5" d="M3141.9,4696a7.48,7.48,0,0,1-3.85-1.06,7.57,7.57,0,0,1-2.66-10.37l57.67-97.25a7.57,7.57,0,0,1,13,7.72l-57.67,97.25A7.55,7.55,0,0,1,3141.9,4696Z" transform="translate(-191.05 -1651.96)"/><path class="cls-5" d="M2979.74,4971.7a7.57,7.57,0,0,1-6.52-11.41l126.67-215.84a7.57,7.57,0,1,1,13.05,7.67L2986.28,4968A7.57,7.57,0,0,1,2979.74,4971.7Z" transform="translate(-191.05 -1651.96)"/><path class="cls-2" d="M3782.86,4745.74c-169.71-224.24-204.27-672.49-441.49-673.81l-259-90.16c-214.34,214.34,317.33,676.26,407,835.77C3489.41,4817.54,3751.67,4818.13,3782.86,4745.74Z" transform="translate(-191.05 -1651.96)"/><path class="cls-1" d="M2991.78,4783.67c-4.91-44.84,11.82-86.9,54.42-125.64,27.19,20.19,94.71,50,128.56,48.88l-25.15,107.45Z" transform="translate(-191.05 -1651.96)"/><path class="cls-1" d="M3820.45,4877.29c21-84.95-68-216.84-68-216.84s-43.27-64.95-157.46-50.6c-114.45,14.38-160.11,61.37-195.2,88.93l-225,8.13c-41.22,31.76-42.76,68.42-25.15,107.45l455.26,160C3679.39,5000.09,3795.72,4952.14,3820.45,4877.29Z" transform="translate(-191.05 -1651.96)"/><path class="cls-5" d="M3174.75,4714.49a7.57,7.57,0,0,1-.26-15.14l225-8.13a7.66,7.66,0,0,1,7.84,7.29,7.57,7.57,0,0,1-7.29,7.84l-225,8.13Z" transform="translate(-191.05 -1651.96)"/><path class="cls-5" d="M3385.45,4904.84a7.42,7.42,0,0,1-2.51-.44l-235.84-82.9a7.57,7.57,0,1,1,5-14.28l235.85,82.9a7.58,7.58,0,0,1-2.52,14.72Z" transform="translate(-191.05 -1651.96)"/><path class="cls-3" d="M2768.09,4967.14h0c12.61,9.58,29.19,8.42,49.75-8.54,32.89-27.14,47.09-44.36,79.62-83.73,19.26-23.31,106.95-60.65,106.95-60.65l.32-.18c14.29-8,18.2-26.34,10.45-41.44-24.26-47.25,8.88-55.07,39.93-105.66.21-11.07-7.73-36.29-28.53-49.83-9.41-6.13-38.67-22.93-38.67-22.93l-219.82,373Z" transform="translate(-191.05 -1651.96)"/><rect class="cls-4" x="2643.56" y="4748.53" width="433.13" height="42.82" transform="translate(-2892.57 3145.29) rotate(-59.33)"/><path class="cls-5" d="M2731.24,4952.86a7.56,7.56,0,0,1-6.5-11.43l220.91-372.55a7.57,7.57,0,1,1,13,7.72l-220.91,372.56A7.57,7.57,0,0,1,2731.24,4952.86Z" transform="translate(-191.05 -1651.96)"/><path class="cls-5" d="M2930.24,4699a7.57,7.57,0,0,1-6.51-11.43l57.67-97.25a7.57,7.57,0,1,1,13,7.72l-57.66,97.26A7.56,7.56,0,0,1,2930.24,4699Z" transform="translate(-191.05 -1651.96)"/><path class="cls-5" d="M2768.08,4974.71a7.49,7.49,0,0,1-3.82-1.05,7.57,7.57,0,0,1-2.7-10.36l126.66-215.84a7.57,7.57,0,0,1,13.06,7.66L2774.62,4971A7.57,7.57,0,0,1,2768.08,4974.71Z" transform="translate(-191.05 -1651.96)"/><path class="cls-5" d="M3816.54,4904.83a7.57,7.57,0,0,1-6.65-11.18c41.45-76.45-76.24-256.45-190-430.53-68.12-104.21-138.57-212-178.89-302.48a7.57,7.57,0,1,1,13.83-6.16c39.83,89.41,109.94,196.65,177.73,300.35,121.59,186,236.44,361.65,190.69,446A7.56,7.56,0,0,1,3816.54,4904.83Z" transform="translate(-191.05 -1651.96)"/><path class="cls-1" d="M3083.4,3984.35c248.6-247.26,108.65-483.61,138-656,8.06-47.35,37.28-89.31,80.25-110.78,130.67-65.29,250.49,110.86,374,239.19,41.28,42.88-3.16,128-1.46,187.44l30.86,129.9c-19.18,59-70.5,52-122.26,44.17-74,57.42-111.33,208,14.64,283.45C3597.45,4101.68,3126.62,4170.35,3083.4,3984.35Z" transform="translate(-191.05 -1651.96)"/><path class="cls-6" d="M3083.4,3984.35c196.58-195.52,137.83-527.63,137.83-527.63,7,79.41,118.29,125,216.5,9.14,82.55,173.78,131.73,174.9,234.9,157.63l2,34.43,30.4,116.14c-19.18,59-45.46,69.9-97.22,62-74,57.42-90.54,201.75-10.4,265.59C3597.45,4101.68,3126.62,4170.35,3083.4,3984.35Z" transform="translate(-191.05 -1651.96)"/><path class="cls-6" d="M3674.66,3665.49a7.57,7.57,0,0,1-7.53-6.81l-22.75-226.45a7.57,7.57,0,0,1,15.07-1.51l22.75,226.44a7.58,7.58,0,0,1-6.78,8.29A6.45,6.45,0,0,1,3674.66,3665.49Z" transform="translate(-191.05 -1651.96)"/><circle class="cls-5" cx="3619.36" cy="2872.38" r="136.49" transform="translate(-1162.04 1748.62) rotate(-45)"/><circle class="cls-5" cx="3606.26" cy="2736.48" r="44.43" transform="translate(-1069.78 1699.55) rotate(-45)"/><circle class="cls-5" cx="3629.33" cy="3008.51" r="44.43" transform="translate(-1255.38 1795.54) rotate(-45)"/><circle class="cls-5" cx="3481.78" cy="2884.03" r="44.43" transform="translate(-623.42 -1030.63) rotate(-9.6)"/><circle class="cls-5" cx="3753.81" cy="2860.95" r="44.43" transform="translate(-1153.82 1035.77) rotate(-35.21)"/><circle class="cls-5" cx="3494.65" cy="2813.61" r="44.43" transform="translate(-1157.01 1643.22) rotate(-45)"/><circle class="cls-5" cx="3740.94" cy="2931.38" r="44.43" transform="translate(-935.71 -291.23) rotate(-18.78)"/><circle class="cls-5" cx="3558.91" cy="2995.64" r="44.43" transform="translate(-801.39 3406.93) rotate(-66.42)"/><circle class="cls-5" cx="3676.68" cy="2749.35" r="44.43" transform="translate(-880.52 -321.62) rotate(-18.78)"/><circle class="cls-5" cx="3505.35" cy="2949.88" r="44.43" transform="translate(36.24 4498.48) rotate(-84.4)"/><circle class="cls-5" cx="3730.24" cy="2795.11" r="44.43" transform="translate(713.99 4850.65) rotate(-89.54)"/><circle class="cls-5" cx="3695.18" cy="2984.94" r="44.43" transform="translate(-835.72 3264.29) rotate(-62.92)"/><circle class="cls-5" cx="3540.41" cy="2760.05" r="44.43" transform="matrix(0.19, -0.98, 0.98, 0.19, -41.87, 4049.5)"/><path class="cls-6" d="M3498,3007a19,19,0,0,1-18.43-23.29c15.56-65.69,57.55-117.09,115.21-141,63.41-26.31,138.55-17.54,206.22,24.07a18.93,18.93,0,1,1-19.83,32.24c-57.19-35.17-119.86-43-171.88-21.35-47,19.51-80,60.27-92.89,114.79A18.93,18.93,0,0,1,3498,3007Z" transform="translate(-191.05 -1651.96)"/><path class="cls-1" d="M3702.5,3239.18l-57.25,109.9a189.19,189.19,0,0,0-20.28,107.3c17.36,163.91-59.06,59.87-87.29-5-17-39-92.38-158.83-75.39-197.81,31.83,22.71,70.26-18.16,76.75-36.78l85.18-180.43Z" transform="translate(-191.05 -1651.96)"/><path class="cls-1" d="M3540.44,3132.59l49,101.74s58.47,59.67,109.57,66.35l84.31,14.17c61.64,1.13,112-253.25,79.39-308.92-35.49-60.62-182.12-97.39-182.12-97.39-77.57-14.3-155.78,112.93-136.46,166.32Z" transform="translate(-191.05 -1651.96)"/><path class="cls-5" d="M3862.75,3005.93c-50.91,8.62-147.61-48.13-209.95-48.82-36.88-.42-46.2,60.47-47.5,77.76L3589.19,3142l-59.28,19c-82.85-92,7.13-332.68,179.92-291.18C3859.85,2905.8,3865.05,2946.3,3862.75,3005.93Z" transform="translate(-191.05 -1651.96)"/><path class="cls-5" d="M3698.6,3259.25a7.53,7.53,0,0,1-3.45-.84c-44.89-23-51.76-48.57-49.61-66a7.57,7.57,0,1,1,15,1.85c-2.25,18.36,11.7,35.4,41.5,50.66a7.57,7.57,0,0,1-3.46,14.31Z" transform="translate(-191.05 -1651.96)"/><path class="cls-5" d="M3701.81,3221.82c-21.27,0-41.51-10.51-54.11-23.11a7.57,7.57,0,0,1,10.7-10.71c12.39,12.38,35.27,22.95,56.18,16.91a7.57,7.57,0,1,1,4.2,14.55A61.43,61.43,0,0,1,3701.81,3221.82Z" transform="translate(-191.05 -1651.96)"/><path class="cls-5" d="M3809.82,3112.93c-6,11.18-4.79,25,2.59,30.92s18.17,1.62,24.12-9.55,4.78-25-2.59-30.92S3815.76,3101.76,3809.82,3112.93Z" transform="translate(-191.05 -1651.96)"/><ellipse class="cls-5" cx="3714.99" cy="3091.32" rx="23.36" ry="16.49" transform="translate(-500.86 4114.88) rotate(-73.38)"/><path class="cls-5" d="M3783.37,3322.42h-.23c-95.45-2.81-141.83-30-198.79-82.52a7.58,7.58,0,0,1,10.27-11.14c54.19,50,98.3,75.85,189,78.52a7.57,7.57,0,0,1-.22,15.14Z" transform="translate(-191.05 -1651.96)"/><path class="cls-5" d="M3784.08,3165.07a7.57,7.57,0,0,1-5.17-2l-25.84-24.17a7.57,7.57,0,1,1,10.35-11.06l25.84,24.17a7.57,7.57,0,0,1-5.18,13.1Z" transform="translate(-191.05 -1651.96)"/><path class="cls-5" d="M3747.89,3190.39a7.57,7.57,0,0,1-4.35-13.77l36.2-25.33a7.57,7.57,0,1,1,8.68,12.41l-36.2,25.32A7.55,7.55,0,0,1,3747.89,3190.39Z" transform="translate(-191.05 -1651.96)"/><ellipse class="cls-1" cx="3550.08" cy="3150.5" rx="41.82" ry="68.87" transform="translate(-268.2 -1562.82) rotate(-1.42)"/><path class="cls-5" d="M3536.26,3222.46a7.58,7.58,0,0,1-4-1.13c-24.7-15.25-37.49-57.77-29.12-96.81,5.07-23.66,16.92-41,32.5-47.68,10.53-4.5,22-3.49,32.2,2.83,15,9.26,26.26,29.4,30.16,53.86a7.57,7.57,0,0,1-15,2.39c-3.22-20.18-11.88-36.39-23.17-43.37-6.1-3.76-12.25-4.37-18.3-1.79-10.83,4.62-19.67,18.43-23.64,36.94-6.87,32.07,3.33,69.05,22.27,80.74a7.58,7.58,0,0,1-4,14Z" transform="translate(-191.05 -1651.96)"/><path class="cls-5" d="M3630.8,3841.9c-18,0-36.13-5.92-52.39-17.51a7.57,7.57,0,1,1,8.8-12.33c29.75,21.24,56.65,14.94,70,9.3,20.84-8.79,36.42-27.1,40.1-47l-30-114.56A7.57,7.57,0,0,1,3682,3656l30.4,116.14a7.76,7.76,0,0,1,.16,3.07c-3.93,25.51-23.34,49.1-49.44,60.1A83,83,0,0,1,3630.8,3841.9Z" transform="translate(-191.05 -1651.96)"/><path class="cls-5" d="M3436.3,3763.64c-27.48,0-55.81-11.13-78.53-31.72a122.24,122.24,0,0,1-38.11-115.76,7.58,7.58,0,0,1,14.85,3c-7.76,38.23,4.43,75.24,33.44,101.53,26.73,24.24,62.05,33.56,92.2,24.3a7.57,7.57,0,1,1,4.44,14.47A96.46,96.46,0,0,1,3436.3,3763.64Z" transform="translate(-191.05 -1651.96)"/><path class="cls-6" d="M3434.43,3498.27a6.82,6.82,0,0,1-1-.07,7.57,7.57,0,0,1-6.51-8.5l29.82-223.93a7.57,7.57,0,1,1,15,2l-29.81,223.94A7.57,7.57,0,0,1,3434.43,3498.27Z" transform="translate(-191.05 -1651.96)"/><path class="cls-5" d="M3485.3,3268.49c-18,0-36.32-12.79-57.85-31.88a7.58,7.58,0,0,1,10.06-11.33c23.87,21.18,38.42,29.25,50.32,27.93,12.32-1.4,25.37-13.22,45.05-40.8a7.57,7.57,0,1,1,12.33,8.79c-19,26.61-35.72,44.79-55.68,47.05A37.22,37.22,0,0,1,3485.3,3268.49Z" transform="translate(-191.05 -1651.96)"/><path class="cls-5" d="M3909.44,3236.36a7.51,7.51,0,0,1-5.22-2.09c-27.81-26.46-18.21-76.63-8.93-125.16,7.48-39.11,15.21-79.54-.63-96.35-8.14-8.63-22.6-11.46-44.29-8.62a7.57,7.57,0,1,1-2-15c26.85-3.52,45.56.82,57.27,13.25,21.16,22.43,13.06,64.76,4.49,109.58-8.51,44.53-17.32,90.58,4.5,111.35a7.57,7.57,0,0,1-5.22,13.05Z" transform="translate(-191.05 -1651.96)"/><path class="cls-1" d="M3327.09,3329.36l-105.7-1.05c-19.72,20.29,73.15,890.33,73.15,890.33l75.11,28.06-4.84-368,34.89-422Z" transform="translate(-191.05 -1651.96)"/><path class="cls-1" d="M3294.54,4218.64l3.27,51.76c-17.58,52.74,0,39.05,30.7,72.64l78,58.35,68.36,84.78,75.33-10.84-27.95-78.8-47-73.42-105.68-76.41Z" transform="translate(-191.05 -1651.96)"/><path class="cls-1" d="M3414.94,4464.77l-6.88-17.47-38.89-38.89L3328.51,4343l57.19,25.31,45.15,71.53,13,33.29a7.18,7.18,0,0,1-8.45,9.58h0A29.81,29.81,0,0,1,3414.94,4464.77Z" transform="translate(-191.05 -1651.96)"/><path class="cls-5" d="M3406.56,4409a7.57,7.57,0,0,1-6.41-3.53l-20.85-33a7.57,7.57,0,1,1,12.81-8.08l20.85,33a7.58,7.58,0,0,1-6.4,11.61Z" transform="translate(-191.05 -1651.96)"/><path class="cls-5" d="M3328.51,4350.61a7.49,7.49,0,0,1-3.77-1c-23.94-13.74-37.5-28.16-41.49-44.07-2.93-11.72-.64-24.14,6.82-37l-6.25-79.37a7.57,7.57,0,0,1,15.1-1.19l6.44,81.79a7.62,7.62,0,0,1-1.13,4.61c-6.32,10.11-8.38,19.09-6.29,27.45,2.93,11.7,14.16,23,34.34,34.61a7.57,7.57,0,0,1-3.77,14.14Z" transform="translate(-191.05 -1651.96)"/><path class="cls-5" d="M3497.13,4490.55a7.58,7.58,0,0,1-6.7-4L3460,4429.18l-37.54-56.32a7.57,7.57,0,1,1,12.6-8.4l37.75,56.64c.14.21.28.43.4.65l30.6,57.68a7.57,7.57,0,0,1-6.69,11.12Z" transform="translate(-191.05 -1651.96)"/><path class="cls-5" d="M3529.34,4485.14a7.56,7.56,0,0,1-6.92-4.49l-32-71.78-36.32-56.31a7.58,7.58,0,0,1,12.74-8.2l36.62,56.8a8.38,8.38,0,0,1,.55,1l32.21,72.31a7.57,7.57,0,0,1-6.91,10.65Z" transform="translate(-191.05 -1651.96)"/><path class="cls-5" d="M3366.55,3865.35l-.53,0a7.58,7.58,0,0,1-7-8.08l27.12-389a7.57,7.57,0,1,1,15.11,1.05l-27.12,389A7.58,7.58,0,0,1,3366.55,3865.35Z" transform="translate(-191.05 -1651.96)"/><path class="cls-5" d="M3550.26,4883.64a7.54,7.54,0,0,1-5.78-2.67l-283.22-333.72a7.57,7.57,0,0,1,11.55-9.8L3556,4871.18a7.57,7.57,0,0,1-5.76,12.46Z" transform="translate(-191.05 -1651.96)"/><path class="cls-5" d="M3935.74,2920.09a7.57,7.57,0,0,1-1.32-15l111.71-19.95a7.57,7.57,0,1,1,2.66,14.9l-111.71,20A7.59,7.59,0,0,1,3935.74,2920.09Z" transform="translate(-191.05 -1651.96)"/><path class="cls-5" d="M3872.48,2857.18a7.57,7.57,0,0,1-5.54-12.73l77.36-83a7.57,7.57,0,1,1,11.07,10.33l-77.35,83A7.54,7.54,0,0,1,3872.48,2857.18Z" transform="translate(-191.05 -1651.96)"/><path class="cls-1" d="M4144.76,4049.66,4286.05,4072c15.51-42.14,14.34-174.27,14.34-174.27-35.55-9.55-72-7.47-109,2.65a47.93,47.93,0,0,0-34.75,12.28h0c-49.75,29.6-55.21,73.87-55.21,73.87Z" transform="translate(-191.05 -1651.96)"/><path class="cls-5" d="M4162.24,4091.58a7.6,7.6,0,0,1-7.26-9.72c2.71-9.19,67.48-225.29,159.37-248.35,92.08-23.15,247.51,148.61,254.07,155.93a7.57,7.57,0,1,1-11.26,10.12c-1.55-1.73-155.78-172.29-239.13-151.37-83.58,21-147.89,235.79-148.53,238A7.57,7.57,0,0,1,4162.24,4091.58Z" transform="translate(-191.05 -1651.96)"/><path class="cls-1" d="M4213.6,3901.57c-15.88-5.58-29.16-4.3-41,.76L4121,3970l63.77,16.55c10.57-4.14,15.7-34.45,15.7-34.45l47.17,26.79,38.45-3.89-72.45-73.44Z" transform="translate(-191.05 -1651.96)"/><path class="cls-5" d="M4247.6,3986.47a7.55,7.55,0,0,1-3.74-1l-47.17-26.79a7.57,7.57,0,0,1,7.48-13.16l45.07,25.6,20.32-2.06-61.35-62.19a7.57,7.57,0,0,1,10.78-10.63l72.45,73.45a7.57,7.57,0,0,1-4.63,12.84l-38.45,3.89A6.45,6.45,0,0,1,4247.6,3986.47Z" transform="translate(-191.05 -1651.96)"/><path class="cls-5" d="M4184.73,3994.14a7.58,7.58,0,0,1-2.76-14.63c6.88-2.69,10.54-12,10.89-27.57.11-4.17,3.28-7.71,7.74-7.4a7.58,7.58,0,0,1,7.4,7.74c-.5,22.29-7.4,36.2-20.51,41.33A7.43,7.43,0,0,1,4184.73,3994.14Z" transform="translate(-191.05 -1651.96)"/><path class="cls-5" d="M4172.59,3909.9a7.57,7.57,0,0,1-3-14.53c14.93-6.39,30.14-6.7,46.49-.94a7.57,7.57,0,0,1-5,14.28c-12.78-4.49-24.08-4.31-35.53.58A7.59,7.59,0,0,1,4172.59,3909.9Z" transform="translate(-191.05 -1651.96)"/><path class="cls-7" d="M4300.41,3847q125.39-84.37,83.58-234.53C4270,3704.78,4255.39,3780.77,4300.41,3847Z" transform="translate(-191.05 -1651.96)"/><path class="cls-5" d="M4300.41,3854.53a7.55,7.55,0,0,1-6.26-3.31c-51.87-76.27-24-156.31,85.08-244.67a7.57,7.57,0,1,1,9.52,11.77c-101.83,82.46-128.69,155.86-82.08,224.38a7.57,7.57,0,0,1-6.26,11.83Z" transform="translate(-191.05 -1651.96)"/><path class="cls-7" d="M4395.16,3856.64q104.85-11.22,128-117.5C4422.68,3759,4388.94,3801.13,4395.16,3856.64Z" transform="translate(-191.05 -1651.96)"/><path class="cls-5" d="M4395.15,3864.21a7.58,7.58,0,0,1-7.52-6.73c-7.32-65.37,36.52-106.51,134-125.76a7.57,7.57,0,1,1,2.93,14.85c-88.32,17.44-128.2,53.16-121.92,109.22a7.57,7.57,0,0,1-6.68,8.37A8.24,8.24,0,0,1,4395.15,3864.21Z" transform="translate(-191.05 -1651.96)"/><path class="cls-7" d="M4498.4,3928.23q132.39-14.17,161.59-148.35C4533.15,3804.92,4490.55,3858.14,4498.4,3928.23Z" transform="translate(-191.05 -1651.96)"/><path class="cls-5" d="M4498.39,3935.8a7.58,7.58,0,0,1-7.52-6.73c-9.1-81.32,45.74-132.55,167.65-156.62a7.57,7.57,0,1,1,2.93,14.86c-112.71,22.25-163.58,68.07-155.53,140.07a7.57,7.57,0,0,1-6.68,8.37A8.24,8.24,0,0,1,4498.39,3935.8Z" transform="translate(-191.05 -1651.96)"/><path class="cls-7" d="M4361.71,3847q48.87,90.55-23.4,171.46C4298.76,3926.34,4313.87,3874.58,4361.71,3847Z" transform="translate(-191.05 -1651.96)"/><path class="cls-5" d="M4338.31,4026a7.59,7.59,0,0,1-7-4.58c-38.37-89.33-29.68-148.53,26.57-181a7.57,7.57,0,0,1,7.57,13.12c-48.4,27.94-55,80.9-20.22,161.91a7.58,7.58,0,0,1-4,10A7.73,7.73,0,0,1,4338.31,4026Z" transform="translate(-191.05 -1651.96)"/><path class="cls-7" d="M4472.43,3910.62q30.28,98.33-56.35,163.61C4395.22,3976.21,4420.12,3928.38,4472.43,3910.62Z" transform="translate(-191.05 -1651.96)"/><path class="cls-5" d="M4416.07,4081.8a7.57,7.57,0,0,1-7.4-6c-20.23-95.09-.17-151.47,61.32-172.36a7.57,7.57,0,1,1,4.87,14.33c-52.92,18-69.72,68.64-51.37,154.88a7.58,7.58,0,0,1-5.84,9A7.7,7.7,0,0,1,4416.07,4081.8Z" transform="translate(-191.05 -1651.96)"/><path class="cls-8" d="M7277.31,3383.61l-357.55,238.77c9.64,101.47,46.39,164,126.45,164.15l287-72.65Z" transform="translate(-191.05 -1651.96)"/><path class="cls-8" d="M7349.57,3352.64s-74.19,9.12-131,89.69,0,168.08,0,168.08L7412,3833.57l127.58,37.82Z" transform="translate(-191.05 -1651.96)"/><path class="cls-9" d="M6971.74,4041.83s281.83-45.28,671.51,61.88L7478.31,4421.6l-479.45-70.73Z" transform="translate(-191.05 -1651.96)"/><path class="cls-10" d="M6971.74,4041.83c183.28-18.17,317.85,191.25,206.09,335.39l-12.05,452.05c-32,42.12-114.24,10.74-154.05-6.92l-129.66-596.51A143.8,143.8,0,0,1,6971.74,4041.83Z" transform="translate(-191.05 -1651.96)"/><path class="cls-5" d="M7174.12,4493.31h-.27a7.57,7.57,0,0,1-7.3-7.84l9.24-259.91a7.65,7.65,0,0,1,7.83-7.29,7.57,7.57,0,0,1,7.3,7.83L7181.68,4486A7.57,7.57,0,0,1,7174.12,4493.31Z" transform="translate(-191.05 -1651.96)"/><path class="cls-9" d="M7339.65,4835C7373.5,4624.05,7577,4151.6,7577,4151.6l274.62-119.18c218,218-27.83,643.27-292.84,805.48C7558.79,4837.9,7371.37,4908.61,7339.65,4835Z" transform="translate(-191.05 -1651.96)"/><path class="cls-10" d="M7340.16,4864.25c-7.14-76.95,47.91-215.79,47.91-215.79s60.92-36.89,158.05-13,133.25,109.95,133.25,109.95l35.77-35.79L7991.4,4717c84.59,0,112.05,87.59,94.14,127.28l-526.15,128.86C7473.87,4989.49,7358.74,4979.45,7340.16,4864.25Z" transform="translate(-191.05 -1651.96)"/><path class="cls-5" d="M7514.37,4987.63a7.57,7.57,0,0,1-1.73-14.94l438.45-103.32a7.57,7.57,0,1,1,3.48,14.74l-438.46,103.32A7.44,7.44,0,0,1,7514.37,4987.63Z" transform="translate(-191.05 -1651.96)"/><path class="cls-5" d="M7413,4581a7.58,7.58,0,0,1-7.08-10.24l90.46-240.55a7.56,7.56,0,1,1,14.16,5.33l-90.46,240.55A7.55,7.55,0,0,1,7413,4581Z" transform="translate(-191.05 -1651.96)"/><path class="cls-5" d="M7558.8,4845.47a7.57,7.57,0,0,1-4.36-13.76c95.21-67,163.33-127,208.23-183.44a7.57,7.57,0,1,1,11.84,9.44c-45.81,57.54-114.95,118.5-211.36,186.39A7.54,7.54,0,0,1,7558.8,4845.47Z" transform="translate(-191.05 -1651.96)"/><path class="cls-8" d="M7972.73,4224S7938,4106.45,7938,3691.59c0-92.83,2.93-229.49-70.3-302.73-101-101-255-102.71-283.79-107.77-160.61-28.23-249.15,67-292.88,188.93l89.55,237.76c53.19,88,35.75,299.68-5.75,341.17C7650.51,4396.54,7917.21,4302.4,7972.73,4224Z" transform="translate(-191.05 -1651.96)"/><path class="cls-5" d="M7828.26,4302.73a7.57,7.57,0,0,1-1.24-15c66.54-11.1,109.13-31.34,137.39-65.44-8.88-33.41-14.44-69.62-16.52-107.72a7.57,7.57,0,0,1,15.11-.83c2.11,38.46,7.84,74.89,17,108.29a7.55,7.55,0,0,1-1.35,6.69c-30.75,39.06-76.75,61.86-149.17,73.94A7.61,7.61,0,0,1,7828.26,4302.73Z" transform="translate(-191.05 -1651.96)"/><path class="cls-4" d="M7549.32,3281.27l43.82,14.16c-36.07,75-68.35,160.28-130.11,175.31l-53.95,187.67-50.4-175.87s-59.12-85.3-40.71-121.93Z" transform="translate(-191.05 -1651.96)"/><path class="cls-10" d="M7262.81,3222.79l88.76,168.14c-28.07,80.42,33.59,90.29,101.22,40.16,42.61-31.59,98.16-109.3,97.37-150.13l-96.79-105.91-7.56-233.9Z" transform="translate(-191.05 -1651.96)"/><path class="cls-8" d="M7545.71,3276.1c39.24-2.21,75.67-1.48,104.8,6.91-6.28,47.7-14.28,177.26-95.1,239.91L7463,3470.74S7567.58,3371.34,7545.71,3276.1Z" transform="translate(-191.05 -1651.96)"/><path class="cls-8" d="M7232,3424.93c47.67-47.67,98.62-73.69,98.62-73.69l20.95,39.69c-2.16,18.65-11.1,68.38,4.74,85.32l-73.76,60.6C7242.65,3509.05,7231.16,3467.23,7232,3424.93Z" transform="translate(-191.05 -1651.96)"/><path class="cls-5" d="M7356.32,3483.82a7.58,7.58,0,0,1-6.84-4.31c-19.47-40.74-13.38-72.32-4.84-91.64a7.57,7.57,0,0,1,13.85,6.12c-7.26,16.41-12.34,43.44,4.65,79a7.57,7.57,0,0,1-6.82,10.84Z" transform="translate(-191.05 -1651.96)"/><path class="cls-5" d="M7409.08,3666a7.57,7.57,0,0,1-7.28-5.46L7352,3488.57l-76.2,53.85a7.57,7.57,0,0,1-8.74-12.37l84.88-60a7.58,7.58,0,0,1,11.65,4.08l45.46,157,46.7-162.46a7.57,7.57,0,0,1,10.12-4.92l78.91,32c81.19-76.16,95.72-174.22,98.18-213.23a7.67,7.67,0,0,1,8-7.08,7.56,7.56,0,0,1,7.08,8c-2.61,41.41-18.22,146.38-106.59,226.71a7.59,7.59,0,0,1-7.94,1.41L7468,3480.92l-51.63,179.58a7.56,7.56,0,0,1-7.27,5.47Z" transform="translate(-191.05 -1651.96)"/><path class="cls-5" d="M7550.16,3288.53a7.54,7.54,0,0,1-5.37-2.24l-86.19-86.73a7.57,7.57,0,1,1,10.74-10.68l86.18,86.74a7.57,7.57,0,0,1-5.36,12.91Z" transform="translate(-191.05 -1651.96)"/><path class="cls-10" d="M7503.1,3161.08l-81.56,113.14c-48.15,39.61-115.26,41.66-190.11,12.44-61.61-107.82-29.69-293.22-2.72-345.7,32.61-63.46,206-39.5,206-39.5,79.55,9.54,117,156.55,82.16,202.5Z" transform="translate(-191.05 -1651.96)"/><path class="cls-5" d="M7228.71,2941c46.78,23.72,154.63-39.7,213.4-16.11,16.35,6.56,31.52,104.71,27.56,121.88l-30.41,102.81,65.48,42.22c108.12-64.22,103.46-341.88-53.26-342.44S7244.47,2882.43,7228.71,2941Z" transform="translate(-191.05 -1651.96)"/><path class="cls-5" d="M7315,3216.2a67.89,67.89,0,0,1-17.28-2.25,7.57,7.57,0,1,1,3.86-14.64c25.45,6.7,50.46-5.58,58.17-28.61a7.57,7.57,0,0,1,14.36,4.81C7365.75,3200.36,7341.53,3216.2,7315,3216.2Z" transform="translate(-191.05 -1651.96)"/><ellipse class="cls-5" cx="7351.71" cy="3092.56" rx="22.52" ry="16.75" transform="matrix(0.37, -0.93, 0.93, 0.37, 1573.94, 7132.71)"/><ellipse class="cls-5" cx="7240.94" cy="3070.73" rx="22.52" ry="16.75" transform="translate(1524.34 7016) rotate(-68.35)"/><path class="cls-5" d="M7320.58,3315.3c-26.78,0-56.61-6.53-92.12-21.67a7.57,7.57,0,0,1,5.94-13.93c81.21,34.64,128.65,21.86,183.15-11.91a7.57,7.57,0,0,1,8,12.87C7391.67,3301.63,7359.33,3315.3,7320.58,3315.3Z" transform="translate(-191.05 -1651.96)"/><path class="cls-5" d="M7256.49,3151.7a7.46,7.46,0,0,1-3.38-.8,7.57,7.57,0,0,1-3.38-10.16l32.84-65.69a7.57,7.57,0,1,1,13.54,6.77l-32.84,65.7A7.56,7.56,0,0,1,7256.49,3151.7Z" transform="translate(-191.05 -1651.96)"/><path class="cls-5" d="M7282.89,3167.81a40.07,40.07,0,0,1-9.25-1.1c-11.91-2.81-21.24-10.58-24.35-20.27a7.57,7.57,0,1,1,14.42-4.62c1.47,4.59,6.74,8.58,13.42,10.16,6.84,1.62,13.53.35,17-3.24a7.57,7.57,0,1,1,10.81,10.59C7299.59,3164.83,7291.59,3167.81,7282.89,3167.81Z" transform="translate(-191.05 -1651.96)"/><ellipse class="cls-10" cx="7488.34" cy="3175.54" rx="69.95" ry="42.48" transform="translate(1887.83 7597.88) rotate(-71.29)"/><path class="cls-5" d="M7482.31,3249.73a7.57,7.57,0,0,1-3.81-14.12c37.74-21.9,55.17-52.36,54.87-95.85a7.56,7.56,0,0,1,7.52-7.62,7.38,7.38,0,0,1,7.62,7.52c.34,48.8-20.07,84.47-62.41,109A7.46,7.46,0,0,1,7482.31,3249.73Z" transform="translate(-191.05 -1651.96)"/><path class="cls-5" d="M7667.43,3085.43a7.58,7.58,0,0,1-2.87-14.59l97.11-39.71a7.57,7.57,0,0,1,5.74,14l-97.11,39.71A7.69,7.69,0,0,1,7667.43,3085.43Z" transform="translate(-191.05 -1651.96)"/><path class="cls-5" d="M7781.08,3178.06h-.23l-113.43-3.43a7.57,7.57,0,0,1-7.35-7.79,7.77,7.77,0,0,1,7.8-7.34l113.43,3.42a7.57,7.57,0,0,1-.22,15.14Z" transform="translate(-191.05 -1651.96)"/><path class="cls-9" d="M7290.54,2928.52s-60.6-17.72-45.05-40.47c36.73-53.78,102.65-86,173.62-78,101,11.34,174,99.78,163,197.53l-280.32-31.49Z" transform="translate(-191.05 -1651.96)"/><path class="cls-5" d="M7567.57,2923.86a7.56,7.56,0,0,1-6.9-4.44c-25.4-55.82-80-94.85-142.4-101.87a7.57,7.57,0,1,1,1.68-15c67.71,7.6,126.9,50,154.5,110.65a7.57,7.57,0,0,1-6.88,10.7Z" transform="translate(-191.05 -1651.96)"/><path class="cls-9" d="M7210.89,2993.91c-54.9-2-87.62-17.2-114.94-40.95,4.08-36.35,18.24-79.64,72.05-73.59l92.21,10.36C7240.3,2918.13,7228.26,2936,7210.89,2993.91Z" transform="translate(-191.05 -1651.96)"/><path class="cls-5" d="M7096,2960.53a8.24,8.24,0,0,1-.85-.05,7.57,7.57,0,0,1-6.68-8.37c2.75-24.48,8.9-42.91,18.82-56.34,13.94-18.9,34.63-27,61.6-23.93a7.57,7.57,0,0,1-1.68,15c-21.45-2.4-37.09,3.43-47.74,17.87-8.29,11.23-13.51,27.27-15.95,49A7.57,7.57,0,0,1,7096,2960.53Z" transform="translate(-191.05 -1651.96)"/><path class="cls-9" d="M7523.27,3001c-85.64,24.77-170.1,11.39-254.12-28.54,5.27-46.93-40.61-86.24-101.15-93l111.9,2.87A326.1,326.1,0,0,1,7523.26,3001Z" transform="translate(-191.05 -1651.96)"/><path class="cls-5" d="M7523.28,3008.52a7.53,7.53,0,0,1-5.85-2.76,318.25,318.25,0,0,0-77.21-67.72,7.57,7.57,0,1,1,8-12.84,332.92,332.92,0,0,1,80.88,70.94,7.56,7.56,0,0,1-1,10.65A7.48,7.48,0,0,1,7523.28,3008.52Z" transform="translate(-191.05 -1651.96)"/><path class="cls-5" d="M7441.72,3022.4c-51.46,0-108.95-14.23-175.57-43a7.57,7.57,0,1,1,6-13.9c101.55,43.91,180.54,52.92,248.54,28.37a7.57,7.57,0,1,1,5.15,14.24A245.12,245.12,0,0,1,7441.72,3022.4Z" transform="translate(-191.05 -1651.96)"/><path class="cls-5" d="M7269.16,2980a6.06,6.06,0,0,1-.85-.05,7.58,7.58,0,0,1-6.69-8.37c4.61-41-36.89-78.2-94.46-84.67a7.57,7.57,0,1,1,1.68-15c67.12,7.54,113.48,51.14,107.84,101.42A7.58,7.58,0,0,1,7269.16,2980Z" transform="translate(-191.05 -1651.96)"/><path class="cls-5" d="M7302.64,2891.15h-.24l-134.64-4.21a7.57,7.57,0,0,1-7.33-7.8,7.45,7.45,0,0,1,7.81-7.33l134.63,4.21a7.57,7.57,0,0,1-.23,15.14Z" transform="translate(-191.05 -1651.96)"/><path class="cls-5" d="M7397.53,2915.05a7.48,7.48,0,0,1-2.72-.51c-4-1.53-7.94-3.1-11.88-4.66-24.27-9.63-47.23-18.74-79.06-18.74-.41,0-.84,0-1.24,0a7.57,7.57,0,0,1-.05-15.14c35.18-.54,61.1,9.94,85.94,19.8,3.88,1.54,7.77,3.08,11.72,4.6a7.57,7.57,0,0,1-2.71,14.64Z" transform="translate(-191.05 -1651.96)"/><path class="cls-5" d="M7306.85,2839.89a7.57,7.57,0,0,1-3.53-14.27c28.5-15,56.7-23,83.82-24h.27a7.57,7.57,0,0,1,.26,15.14c-24.82.88-50.84,8.38-77.31,22.28A7.56,7.56,0,0,1,7306.85,2839.89Z" transform="translate(-191.05 -1651.96)"/><path class="cls-5" d="M7170.51,2996.31a7.79,7.79,0,0,1-1.71-.19c-41.43-9.54-62.58-24.28-77.81-37.44a7.57,7.57,0,0,1,9.91-11.45c13.82,11.94,33.09,25.34,71.31,34.13a7.57,7.57,0,0,1-1.7,14.95Z" transform="translate(-191.05 -1651.96)"/><path class="cls-5" d="M7562.27,3019.93c-15.66,0-30.88-6.43-42.4-12.21a7.57,7.57,0,1,1,6.8-13.53c23,11.54,39,13.6,51.85,6.7a7.57,7.57,0,0,1,7.15,13.34A48.75,48.75,0,0,1,7562.27,3019.93Z" transform="translate(-191.05 -1651.96)"/><path class="cls-9" d="M6744.9,4936.83h0c-2-16.26-1.09-48.94,13.27-56.83,41.39-22.75,61.77-1.38,118.11-9.54,33.36-4.83,119.17-63.09,119.17-63.09l.35-.19c15.83-8.49,35.67-2.3,45.76,12.56,31.55,46.46,57.95,21.12,124.22,20.18,10.75,5.65,30.45,26,31.61,51.62.53,11.61,0,46.46,0,46.46l-452.49-1.17Z" transform="translate(-191.05 -1651.96)"/><rect class="cls-11" x="6553.86" y="3284.87" width="452.72" height="44.25"/><path class="cls-5" d="M7197.63,4988.65H6744.91a7.57,7.57,0,0,1,0-15.14h452.72a7.57,7.57,0,0,1,0,15.14Z" transform="translate(-191.05 -1651.96)"/><path class="cls-5" d="M7015,4944.4H6744.91a7.58,7.58,0,0,1,0-15.15H7015a7.58,7.58,0,0,1,0,15.15Z" transform="translate(-191.05 -1651.96)"/><path class="cls-5" d="M7197.39,4944.4H7063.18a7.58,7.58,0,0,1,0-15.15h134.21a7.58,7.58,0,0,1,0,15.15Z" transform="translate(-191.05 -1651.96)"/><path class="cls-9" d="M8354.66,4950.54h0c-10.23,12.8-34.27,34.95-50,30.19-45.18-13.74-44.11-43.26-89.3-77.89-26.75-20.51-128.37-41.24-128.37-41.24l-.39-.12c-17.12-5.4-26.55-23.92-23-41.52,11.22-55-25.34-56.23-72.29-103-3.47-11.65-2.66-40,14.87-58.68,7.94-8.48,33.25-32.44,33.25-32.44l315.14,324.71Z" transform="translate(-191.05 -1651.96)"/><rect class="cls-11" x="7986.06" y="4750.93" width="452.72" height="44.25" transform="translate(10339.56 12332.62) rotate(-134.29)"/><path class="cls-5" d="M8386.33,4927.21a7.56,7.56,0,0,1-5.42-2.28l-316.14-324.06a7.57,7.57,0,0,1,10.84-10.58l316.14,324.06a7.57,7.57,0,0,1-5.42,12.86Z" transform="translate(-191.05 -1651.96)"/><path class="cls-5" d="M8354.66,4958.11a7.53,7.53,0,0,1-5.42-2.29l-188.6-193.32a7.57,7.57,0,1,1,10.84-10.57l188.6,193.32a7.58,7.58,0,0,1-5.42,12.86Z" transform="translate(-191.05 -1651.96)"/><path class="cls-5" d="M8132.4,4730.29A7.58,7.58,0,0,1,8127,4728l-93.72-96.07a7.57,7.57,0,0,1,10.84-10.57l93.72,96.07a7.57,7.57,0,0,1-5.42,12.86Z" transform="translate(-191.05 -1651.96)"/><path class="cls-5" d="M7350.22,3769.89a7.55,7.55,0,0,1-5.72-2.61l-118.27-136.45a7.57,7.57,0,1,1,11.45-9.91l118.26,136.45a7.56,7.56,0,0,1-5.72,12.52Z" transform="translate(-191.05 -1651.96)"/><path class="cls-5" d="M7584.28,3954.93c-59.72,0-119.68-39.24-178.35-116.79A7.57,7.57,0,0,1,7418,3829c58.46,77.28,117,114.42,174.61,110.5a7.65,7.65,0,0,1,8.07,7,7.57,7.57,0,0,1-7,8.08Q7589,3954.93,7584.28,3954.93Z" transform="translate(-191.05 -1651.96)"/><path class="cls-12" d="M6632.57,4329.81l115.91,127.38v178.94c83.53,138.48,130.29,249.23,165.83,345.26H6534c-5.18-102.74,2.52-197.92,36.05-278L6397,4563Z" transform="translate(-191.05 -1651.96)"/><path class="cls-5" d="M6534,4989a7.57,7.57,0,0,1-7.55-7.19c-4.49-89.16.31-214.91,48.7-307.68a7.57,7.57,0,0,1,13.43,7c-46.82,89.76-51.41,212.64-47,299.92a7.58,7.58,0,0,1-7.18,7.94Z" transform="translate(-191.05 -1651.96)"/><path class="cls-13" d="M4956.38,4551.41c268.39,127.23,269.14,22.93,551.36,58.54,390.1,49.24,856.2,125.79,933.57,30.83,146.92-180.34,411.34-402.85,337.21-477s-162.1-44.09-242.52-92.07-76.53-513.22-763.92-559.91S4842.39,3944.13,4807.15,4077,4875.11,4512.88,4956.38,4551.41Z" transform="translate(-191.05 -1651.96)"/><path class="cls-13" d="M5023.7,4572.65l-37.42-119.41L4813.59,4361V4206.51l-45.34-90.86,7.92-84.71v-92.37l175.57-110s101.63-147.33,169.82-183.16,397.2,0,397.2,0l355.12,265.1,185.8,136.36L6134.51,4157l207.24,115.27Z" transform="translate(-191.05 -1651.96)"/><path class="cls-14" d="M5957.39,4666.73c349.74-195.27-280.76-959.75-640.28-917.26-562.81,66.51-360.73,801.94-360.73,801.94,182.73,85.62,228.48,0,407.84,0C5533.21,4551.41,5626.57,4625.34,5957.39,4666.73Z" transform="translate(-191.05 -1651.96)"/><path class="cls-5" d="M4956.38,4559a7.56,7.56,0,0,1-7.29-5.56c-.33-1.22-33.37-123.05-35.47-270.11-.19-12.72-2.84-22.87-5.64-33.6-3.52-13.45-7.16-27.36-5.56-46,1.4-16.54,8.14-37.51,14.64-57.79,4.62-14.36,9-27.93,11.13-38.89,18.38-93.25,54-170.28,105.75-229,5.83-6.59,8.7-17.36,11.74-28.75,4.1-15.38,8.34-31.29,20.86-40.89s31.55-11.68,49.92-13.64c14-1.5,28.42-3,38.46-7.89a7.57,7.57,0,0,1,6.58,13.63c-12.39,6-28.17,7.68-43.43,9.31-16.29,1.74-33.12,3.55-42.32,10.6-8.43,6.47-11.83,19.25-15.44,32.78-3.36,12.59-6.83,25.61-15,34.87-50,56.65-84.41,131.3-102.25,221.88-2.33,11.82-6.82,25.8-11.57,40.59-6.25,19.47-12.72,39.61-14,54.45-1.37,16.08,1.78,28.14,5.12,40.91,2.91,11.14,5.92,22.66,6.14,37.22,2.07,145,34.6,265.12,34.92,266.32a7.56,7.56,0,0,1-5.29,9.3A7.37,7.37,0,0,1,4956.38,4559Z" transform="translate(-191.05 -1651.96)"/><path class="cls-5" d="M5603.26,3845.46a7.53,7.53,0,0,1-4-1.17,771.92,771.92,0,0,0-68-38.47c-8.75-4.35-14.21-11.35-19-17.51-4.44-5.69-8.27-10.61-13.9-12.87-12.24-4.93-28.46-6-44.16-7-11.89-.75-23.13-1.47-32.9-3.79-8.95-2.14-17.5-6.3-25.76-10.33-9.6-4.67-18.67-9.09-27-9.74-8.8-.7-17.83,2.57-27.43,6-7.45,2.66-15.14,5.42-23,6.35a7.57,7.57,0,1,1-1.77-15c6.15-.73,12.72-3.07,19.68-5.57,10.68-3.82,21.8-7.77,33.7-6.84,11.22.87,22,6.13,32.47,11.22,7.87,3.84,15.32,7.46,22.64,9.21,8.51,2,19.12,2.7,30.35,3.41,16.9,1.07,34.36,2.17,48.86,8,9.39,3.78,15.12,11.11,20.17,17.59,4.2,5.38,8.17,10.45,13.84,13.27a787.88,787.88,0,0,1,69.38,39.23,7.57,7.57,0,0,1-4.05,14Z" transform="translate(-191.05 -1651.96)"/><path class="cls-5" d="M6044.06,4391.52a7.55,7.55,0,0,1-7.27-5.5c-1.34-4.71-2.76-9.93-4.25-15.44-5.2-19.15-11.09-40.85-17.85-57.14-5-12-8.24-24.49-11.4-36.57-4.33-16.49-8.79-33.55-17.65-49.27s-23.61-26.67-39.27-38.34c-14.56-10.85-29.62-22.07-41-37.89-9.58-13.29-16-29.78-22.11-45.72-6.78-17.56-13.79-35.72-24.87-48.64-13.45-15.67-29.77-28.34-47.05-41.76-12.74-9.9-25.91-20.13-37.69-31.6a7.57,7.57,0,0,1,10.57-10.85c11.17,10.89,24,20.85,36.41,30.49,17.11,13.29,34.8,27,49.25,43.86,12.78,14.9,20.27,34.29,27.51,53,6.08,15.75,11.81,30.62,20.26,42.33,10,13.93,24.15,24.43,37.79,34.6,16.23,12.09,33,24.6,43.41,43.05,9.83,17.43,14.54,35.44,19.1,52.87,3.18,12.12,6.17,23.57,10.75,34.6,7.12,17.18,13.15,39.39,18.46,59,1.49,5.45,2.89,10.61,4.21,15.27a7.57,7.57,0,0,1-7.29,9.64Z" transform="translate(-191.05 -1651.96)"/><path class="cls-5" d="M5957.4,4674.3a7.57,7.57,0,0,1-3.7-14.18,218,218,0,0,0,27.83-18.38c6.46-5,14.25-7.74,21.79-10.35,7.8-2.71,15.17-5.26,18.81-9.82,8.64-10.85,9.62-26.84,10.65-43.77.64-10.53,1.31-21.42,4-31.38,1.69-6.32,4-12.76,6.28-19,4.34-12,8.83-24.36,9-36.49a7.57,7.57,0,0,1,7.57-7.45h.12a7.59,7.59,0,0,1,7.45,7.7c-.25,14.66-5.17,28.25-9.93,41.4-2.26,6.2-4.38,12.07-5.9,17.76-2.27,8.49-2.86,18.15-3.49,28.38-1.13,18.54-2.3,37.7-13.93,52.29-6.37,8-16.19,11.39-25.69,14.68-6.65,2.31-12.94,4.49-17.42,8a232.85,232.85,0,0,1-29.77,19.67A7.55,7.55,0,0,1,5957.4,4674.3Z" transform="translate(-191.05 -1651.96)"/><path class="cls-5" d="M4986.27,4460.81a7.53,7.53,0,0,1-3.56-.9L4810,4367.64a7.56,7.56,0,0,1-4-6.67v-152.5l-44.38-79.89a7.53,7.53,0,0,1-.92-4.31l7.92-94,0-91.74a7.58,7.58,0,0,1,3.55-6.42l174.18-109.09c10.58-15.94,99.29-147.35,171.78-184.36,75.87-38.73,388.28-2.35,401.54-.78a7.57,7.57,0,0,1,4.12,1.84L5639,3741.29l91,39.19a7.65,7.65,0,0,1,1.87,1.15l146,122.44,86,39a7.5,7.5,0,0,1,2.17,1.49l98.85,97a7.61,7.61,0,0,1,1,1.15l73.82,108.64,118.62,66a7.57,7.57,0,0,1-7.37,13.23l-120.18-66.85a7.7,7.7,0,0,1-2.58-2.37l-74.42-109.5-97.35-95.5-85.73-38.85a7.48,7.48,0,0,1-1.74-1.09l-146-122.4-91.09-39.22a7.68,7.68,0,0,1-2-1.27l-114.39-100.76c-29.26-3.32-322-35.48-390.54-.51-72,36.78-166,179.15-166.93,180.58a7.55,7.55,0,0,1-2.31,2.26l-172,107.74v88.18l-7.76,92.3,44.22,79.59a7.53,7.53,0,0,1,.95,3.68v149.92l168.7,90.13a7.57,7.57,0,0,1-3.58,14.25Z" transform="translate(-191.05 -1651.96)"/><path class="cls-5" d="M6588.52,4197.48a7.53,7.53,0,0,1-4.39-1.4c-30.52-21.79-51-74.58-76.85-141.4-74.08-191.26-198.06-511.37-735.54-535.29a7.57,7.57,0,0,1-7.22-7.9,7.71,7.71,0,0,1,7.9-7.23c547.35,24.36,673.57,350.24,749,544.95,25,64.47,44.69,115.39,71.53,134.54a7.57,7.57,0,0,1-4.41,13.73Z" transform="translate(-191.05 -1651.96)"/><path class="cls-5" d="M6441.31,4648.35a7.57,7.57,0,0,1-5.87-12.36c41.45-50.87,92.52-105.42,141.9-158.16,119.93-128.1,243.94-260.56,195.82-308.68a7.57,7.57,0,1,1,10.71-10.7c58.48,58.48-64.88,190.23-195.47,329.72-49.21,52.57-100.1,106.92-141.22,157.39A7.56,7.56,0,0,1,6441.31,4648.35Z" transform="translate(-191.05 -1651.96)"/><path class="cls-5" d="M6101.56,4687.74a5.52,5.52,0,0,1-.57,0c-133.3-9.79-291.45-30.63-444.39-50.79-50.52-6.65-100.76-13.28-149.81-19.47-89.08-11.24-149.6-8.12-192.35-4.17a7.48,7.48,0,0,1-8.24-6.83,7.56,7.56,0,0,1,6.84-8.24c43.53-4,105.11-7.2,195.64,4.22,49.08,6.2,99.35,12.82,149.9,19.48,152.73,20.13,310.66,40.94,443.52,50.71a7.56,7.56,0,0,1-.54,15.11Z" transform="translate(-191.05 -1651.96)"/><path class="cls-5" d="M5139.12,4620.81a7.69,7.69,0,0,1-1.07-.07c-51.76-7.37-110.52-27.22-184.91-62.49a7.57,7.57,0,0,1,6.49-13.68c73,34.59,130.34,54,180.54,61.17a7.57,7.57,0,0,1-1.05,15.07Z" transform="translate(-191.05 -1651.96)"/><path class="cls-12" d="M5139.11,4482.56l-126,22.77-92,256.74c43.17,51.79,125.15,120.08,127.7,216.35l-455-.64c-14.63-106.12,36.05-142.78,18.15-169.15-8.56-12.62-18.15-32-18.15-32s18.12-320,58-386.29,419.35-230.84,419.35-230.84C5170.62,4254.15,5266.36,4408.85,5139.11,4482.56Z" transform="translate(-191.05 -1651.96)"/><path class="cls-5" d="M5013.05,4512.9a7.57,7.57,0,0,1-1.34-15l126.05-22.76a7.57,7.57,0,1,1,2.7,14.89l-126.05,22.77A7.9,7.9,0,0,1,5013.05,4512.9Z" transform="translate(-191.05 -1651.96)"/><path class="cls-5" d="M4593.75,4784.16h-.46a7.57,7.57,0,0,1-7.1-8c.09-1.53,9.4-154.47,28.87-276.07a7.57,7.57,0,0,1,14.95,2.39c-19.34,120.85-28.61,273.07-28.71,274.59A7.57,7.57,0,0,1,4593.75,4784.16Z" transform="translate(-191.05 -1651.96)"/><path class="cls-5" d="M4651.78,4397.87a7.5,7.5,0,0,1-3.9-1.09,7.58,7.58,0,0,1-2.58-10.39c40.71-67.57,407.25-227.12,422.84-233.88a7.57,7.57,0,0,1,6,13.89c-130.48,56.59-385.3,177-415.89,227.8A7.56,7.56,0,0,1,4651.78,4397.87Z" transform="translate(-191.05 -1651.96)"/><path class="cls-5" d="M4977,4620.81a7.73,7.73,0,0,1-2.4-.39,7.57,7.57,0,0,1-4.78-9.58l56.94-170.21a7.57,7.57,0,0,1,14.36,4.8l-56.94,170.21A7.58,7.58,0,0,1,4977,4620.81Z" transform="translate(-191.05 -1651.96)"/><path class="cls-5" d="M4740.2,4841.41c-28.46,0-60.16-2.11-95.37-6.26a7.57,7.57,0,0,1,1.78-15c189.9,22.41,243-21.36,268-62a7.57,7.57,0,0,1,12.89,7.94C4896.1,4817.08,4836.89,4841.41,4740.2,4841.41Z" transform="translate(-191.05 -1651.96)"/><path class="cls-5" d="M4807.15,4791.24c-42.8,0-89.88-7.29-141.86-21.88a7.57,7.57,0,0,1,4.09-14.58c100.89,28.32,182.27,28.42,248.75.32a7.57,7.57,0,0,1,5.9,13.95C4889,4783.84,4850.26,4791.24,4807.15,4791.24Z" transform="translate(-191.05 -1651.96)"/><path class="cls-12" d="M5234.24,4002c7.57,50.22-68.76,58.31-68.76,58.31s-82.35-24.24-216.85-149.73l-101.44,186.77,241.27,152.07s111.73,210.18,200.58,245.09,201.34-25.56,201.34-25.56C5591.74,4207.25,5510.54,3967.89,5234.24,4002Z" transform="translate(-191.05 -1651.96)"/><path class="cls-5" d="M5351.14,4513c-21.68,0-43.83-3.19-64.86-11.46-27.77-10.91-60.06-38.84-96-83-23.45-28.85-48-64-73-104.39-21.81-35.29-35.47-74.17-36-75.81a7.57,7.57,0,0,1,14.3-5c.13.38,13.71,39,34.62,72.83,24.63,39.86,48.79,74.45,71.84,102.8,34.23,42.11,64.43,68.51,89.75,78.46,84.6,33.24,193.88-24.6,195-25.19a7.57,7.57,0,1,1,7.17,13.33C5490.33,4477.53,5423.32,4513,5351.14,4513Z" transform="translate(-191.05 -1651.96)"/><path class="cls-5" d="M4847.18,4104.88a7.57,7.57,0,0,1-6.51-11.43L4942.12,3922a7.57,7.57,0,1,1,13,7.71L4853.7,4101.16A7.58,7.58,0,0,1,4847.18,4104.88Z" transform="translate(-191.05 -1651.96)"/><path class="cls-5" d="M5196.23,4290.09a7.68,7.68,0,0,1-2.25-.34c-83.19-25.82-218.87-106-350.72-186a7.57,7.57,0,1,1,7.85-12.94c131.05,79.45,265.81,159.14,347.37,184.45a7.57,7.57,0,0,1-2.25,14.8Z" transform="translate(-191.05 -1651.96)"/><path class="cls-12" d="M4577.55,3903.27l211.16-27.54c75.12-28.74,137.25-21.63,189.13,13.77,42,48.26,64.29,109.62,64.27,169,0,0,3.83,77.72-103.51,96.76s-271.07-30.34-271.07-30.34l-90,15-24.16-71.15L4521.67,4084C4472.3,4097.31,4529.55,3933.28,4577.55,3903.27Z" transform="translate(-191.05 -1651.96)"/><path class="cls-5" d="M4977.83,3897.07a7.45,7.45,0,0,1-4.26-1.32c-52.21-35.63-111.81-39.87-182.15-12.95a7.57,7.57,0,0,1-5.41-14.14c74.28-28.42,140.26-23.52,196.1,14.59a7.57,7.57,0,0,1-4.28,13.82Z" transform="translate(-191.05 -1651.96)"/><path class="cls-5" d="M4577.55,4147.46a7.57,7.57,0,0,1-1.24-15l90-15a7.57,7.57,0,0,1,2.48,14.93l-90,15A7.61,7.61,0,0,1,4577.55,4147.46Z" transform="translate(-191.05 -1651.96)"/><path class="cls-5" d="M4882.62,4167.21c-99.63,0-211.65-33.36-217.28-35.06a7.57,7.57,0,0,1,4.38-14.5c1.61.49,163.28,48.63,267.56,30.13,99.06-17.56,97.38-86,97.26-88.95a7.57,7.57,0,0,1,15.13-.72c0,.84,2.86,84.61-109.74,104.58C4922,4165.88,4902.53,4167.21,4882.62,4167.21Z" transform="translate(-191.05 -1651.96)"/><path class="cls-5" d="M4521.68,4091.58a7.57,7.57,0,0,1-3.29-14.39l71.73-34.54a7.6,7.6,0,0,1,4.71-.61l89.12,17.13h97.95a7.57,7.57,0,1,1,0,15.14h-98.67a7.61,7.61,0,0,1-1.43-.13l-87.37-16.8L4525,4090.83A7.48,7.48,0,0,1,4521.68,4091.58Z" transform="translate(-191.05 -1651.96)"/><path class="cls-5" d="M4825.44,3980.19a21.77,21.77,0,1,1-43.54,0c0-12,9.75-12.3,21.77-12.3S4825.44,3968.17,4825.44,3980.19Z" transform="translate(-191.05 -1651.96)"/><path class="cls-5" d="M4839.09,3994a7.53,7.53,0,0,1-5.66-2.54c-13.62-15.3-33-17.82-62.85-8.17a7.57,7.57,0,0,1-4.66-14.4c22.56-7.29,55.27-13.93,78.82,12.5a7.58,7.58,0,0,1-5.65,12.61Z" transform="translate(-191.05 -1651.96)"/><ellipse class="cls-5" cx="4596.85" cy="3943.28" rx="22.99" ry="12.86" transform="translate(-513.28 5824.46) rotate(-76.31)"/><path class="cls-5" d="M5239.85,4089c-60.18,0-150-49.6-214.48-105.06a7.58,7.58,0,0,1,9.88-11.49c84.16,72.36,184.44,115.17,228.27,97.42a7.57,7.57,0,0,1,5.68,14C5260.59,4087.42,5250.7,4089,5239.85,4089Z" transform="translate(-191.05 -1651.96)"/><path class="cls-5" d="M5158.2,4067.84a7.57,7.57,0,0,1-.58-15.12c48.22-3.72,68.87-18.92,69.05-50.81a7.57,7.57,0,0,1,7.57-7.52h.05a7.56,7.56,0,0,1,7.52,7.61c-.3,53.27-47.53,63.08-83,65.82Z" transform="translate(-191.05 -1651.96)"/><path class="cls-5" d="M5361.66,4445.87c-60.87,0-125.62-36.74-196.11-110.85a7.57,7.57,0,1,1,11-10.43c93.7,98.51,175.54,127.91,250.16,89.88a7.57,7.57,0,0,1,6.88,13.49Q5398.45,4445.84,5361.66,4445.87Z" transform="translate(-191.05 -1651.96)"/><path class="cls-12" d="M5843.48,4388.27l64.45,324.61L5849,4977l-325.88.74c-6.24-82.32,23-115.72,68.59-170.72,0,0-81.2-217.8-81.2-318s182.57-281.82,182.57-281.82C5768.4,4202.88,5823.45,4250.57,5843.48,4388.27Z" transform="translate(-191.05 -1651.96)"/><path class="cls-5" d="M5875.72,4865a7.81,7.81,0,0,1-1.66-.18,7.57,7.57,0,0,1-5.74-9l31.87-142.94-64.13-323.06a7.57,7.57,0,1,1,14.84-2.95l64.45,324.62a7.46,7.46,0,0,1,0,3.12L5883.09,4859A7.55,7.55,0,0,1,5875.72,4865Z" transform="translate(-191.05 -1651.96)"/><path class="cls-5" d="M5591.74,4814.63a7.58,7.58,0,0,1-7.09-4.93c-3.34-8.94-81.68-220.23-81.68-320.63,0-38.79,25.31-92.64,75.23-160a7.57,7.57,0,1,1,12.17,9c-47.27,63.83-72.26,116.05-72.26,151,0,97.68,79.92,313.18,80.72,315.34a7.56,7.56,0,0,1-4.44,9.74A7.46,7.46,0,0,1,5591.74,4814.63Z" transform="translate(-191.05 -1651.96)"/><path class="cls-5" d="M5650.67,4260.12a7.57,7.57,0,0,1-5.65-12.62c24.43-27.36,42.57-45.44,42.75-45.62a7.57,7.57,0,0,1,10.68,10.74c-.18.17-18,18-42.14,45A7.56,7.56,0,0,1,5650.67,4260.12Z" transform="translate(-191.05 -1651.96)"/><path class="cls-5" d="M5701.76,4840c-40.42,0-77.88-8.69-113.36-26.18a7.57,7.57,0,0,1,6.69-13.58c50.9,25.09,106.37,30.92,169.58,17.81a7.57,7.57,0,1,1,3.08,14.82A324.49,324.49,0,0,1,5701.76,4840Z" transform="translate(-191.05 -1651.96)"/><path class="cls-5" d="M5678.44,4790a294.65,294.65,0,0,1-79.35-11,7.57,7.57,0,0,1,4.07-14.59c62.85,17.53,126.66,13,189.61-13.56a7.57,7.57,0,1,1,5.88,13.95C5758.8,4781.55,5718.59,4790,5678.44,4790Z" transform="translate(-191.05 -1651.96)"/><ellipse class="cls-13" cx="5518.19" cy="3278.46" rx="32.26" ry="47.38"/><path class="cls-5" d="M5709.23,4985.37c-22.33,0-39.82-24.14-39.82-54.95a7.57,7.57,0,0,1,15.14,0c0,21.58,11.3,39.81,24.68,39.81s24.7-18.23,24.7-39.81a7.57,7.57,0,0,1,15.14,0C5749.07,4961.23,5731.57,4985.37,5709.23,4985.37Z" transform="translate(-191.05 -1651.96)"/><ellipse class="cls-13" cx="5649.13" cy="4930.42" rx="47.38" ry="32.26" transform="translate(-706.84 7546.41) rotate(-75.81)"/><path class="cls-5" d="M5643.15,4984.63a31,31,0,0,1-7.49-.93c-21.66-5.49-32.7-33.17-25.15-63a7.58,7.58,0,1,1,14.69,3.71c-5.3,20.92,1.19,41.36,14.17,44.65s28.41-11.64,33.69-32.55a7.57,7.57,0,0,1,14.68,3.71C5681.05,4966.62,5662.37,4984.63,5643.15,4984.63Z" transform="translate(-191.05 -1651.96)"/><ellipse class="cls-13" cx="5591.74" cy="4930.42" rx="47.38" ry="32.26" transform="translate(-750.15 7490.8) rotate(-75.81)"/><path class="cls-5" d="M5585.77,4984.63a31.06,31.06,0,0,1-7.5-.93c-21.65-5.49-32.69-33.17-25.14-63a7.57,7.57,0,1,1,14.68,3.71c-5.29,20.92,1.2,41.36,14.18,44.65s28.4-11.64,33.69-32.55a7.57,7.57,0,0,1,14.68,3.71C5623.67,4966.62,5605,4984.63,5585.77,4984.63Z" transform="translate(-191.05 -1651.96)"/><ellipse class="cls-13" cx="5532.8" cy="4930.42" rx="47.38" ry="32.26" transform="translate(-794.64 7433.66) rotate(-75.81)"/><path class="cls-5" d="M5526.83,4984.63a31,31,0,0,1-7.5-.93c-21.65-5.48-32.69-33.17-25.14-63a7.58,7.58,0,0,1,14.69,3.71c-5.3,20.92,1.19,41.37,14.16,44.65s28.41-11.64,33.7-32.55a7.57,7.57,0,0,1,14.68,3.71C5564.73,4966.62,5546,4984.63,5526.83,4984.63Z" transform="translate(-191.05 -1651.96)"/><ellipse class="cls-13" cx="5031.62" cy="4930.42" rx="47.38" ry="32.26" transform="translate(-982.39 7243.22) rotate(-78.67)"/><path class="cls-5" d="M5026.8,4984.89a30.14,30.14,0,0,1-6-.59c-11-2.2-19.91-10.21-25.13-22.56-4.8-11.36-5.91-25.27-3.13-39.15a7.57,7.57,0,0,1,14.85,3c-2.2,10.93-1.4,21.68,2.23,30.27,3.21,7.59,8.24,12.43,14.15,13.61s12.42-1.34,18.31-7.1c6.66-6.53,11.53-16.15,13.72-27.08a7.57,7.57,0,0,1,14.84,3c-2.78,13.89-9.16,26.29-18,34.92C5044.86,4980.85,5035.84,4984.89,5026.8,4984.89Z" transform="translate(-191.05 -1651.96)"/><ellipse class="cls-13" cx="4972.04" cy="4930.42" rx="47.38" ry="32.26" transform="translate(-1350.61 6659.84) rotate(-73.63)"/><path class="cls-5" d="M4965.19,4984.38a30.42,30.42,0,0,1-8.63-1.24c-10.75-3.15-18.93-11.92-23.05-24.68-3.78-11.74-3.67-25.68.33-39.26a7.57,7.57,0,0,1,14.52,4.26c-3.15,10.7-3.3,21.48-.44,30.35,2.54,7.85,7.11,13.1,12.91,14.8,12.86,3.79,28.82-10.53,34.91-31.23a7.57,7.57,0,0,1,14.52,4.26C5002.73,4967.27,4984,4984.38,4965.19,4984.38Z" transform="translate(-191.05 -1651.96)"/><ellipse class="cls-13" cx="4905.62" cy="4930.42" rx="47.38" ry="32.26" transform="matrix(0.15, -0.99, 0.99, 0.15, -914.53, 7363.48)"/><path class="cls-5" d="M4901.86,4985.08a30.12,30.12,0,0,1-4.72-.37c-22.07-3.45-35.63-30-30.87-60.44a7.58,7.58,0,0,1,15,2.33c-3.34,21.33,5,41.08,18.23,43.15s27.21-14.2,30.54-35.52a7.58,7.58,0,0,1,15,2.34C4940.56,4964.83,4922.13,4985.08,4901.86,4985.08Z" transform="translate(-191.05 -1651.96)"/><ellipse class="cls-13" cx="4837.52" cy="4930.42" rx="32.26" ry="47.38" transform="translate(-1814.14 834.87) rotate(-24.83)"/><path class="cls-5" d="M4847.55,4983.13c-17.35,0-35.89-13.76-46.18-36a7.57,7.57,0,0,1,13.74-6.36c9.07,19.59,27,31.4,39.12,25.77,5.48-2.53,9.23-8.41,10.59-16.54,1.53-9.2-.22-19.83-4.9-30a7.57,7.57,0,1,1,13.74-6.35c5.95,12.85,8.12,26.62,6.09,38.79-2.2,13.22-9,23.1-19.16,27.8A30.9,30.9,0,0,1,4847.55,4983.13Z" transform="translate(-191.05 -1651.96)"/><ellipse class="cls-13" cx="4770.66" cy="4934.02" rx="32.26" ry="47.38" transform="translate(-2128.19 1829.79) rotate(-33.75)"/><path class="cls-5" d="M4783.43,4985c-15.91,0-33.66-10.51-45.88-28.8a7.57,7.57,0,1,1,12.58-8.42c12,18,31.54,26.82,42.65,19.39,5-3.35,7.82-9.74,7.89-18,.08-9.32-3.29-19.56-9.48-28.83a7.57,7.57,0,1,1,12.58-8.42c7.88,11.78,12.15,25,12,37.38-.12,13.41-5.31,24.22-14.62,30.44A31.54,31.54,0,0,1,4783.43,4985Z" transform="translate(-191.05 -1651.96)"/><path class="cls-5" d="M5883.46,4432.32c-.29,0-.58,0-.88,0a7.57,7.57,0,0,1-6.65-8.38c9.18-80.17-26.67-144.44-60.16-175.11-21.35-19.55-44.33-28.57-63.07-24.73a7.57,7.57,0,0,1-3-14.83c23.53-4.83,51.36,5.52,76.33,28.39,36.11,33.08,74.81,102.17,65,188A7.57,7.57,0,0,1,5883.46,4432.32Z" transform="translate(-191.05 -1651.96)"/><path class="cls-5" d="M5885.63,4260.12a7.56,7.56,0,0,1-6.11-3.09c-40.27-54.84-81.65-85.84-123-92.13-32.73-5-66.84,5.39-101.41,30.84a7.57,7.57,0,0,1-9-12.19c37.93-27.92,75.82-39.25,112.67-33.62,45.42,6.92,90.13,39.94,132.87,98.14a7.57,7.57,0,0,1-6.09,12.05Z" transform="translate(-191.05 -1651.96)"/><path class="cls-5" d="M5364.22,4378.15a7.57,7.57,0,0,1-1.51-15c151.78-31,182.69-106.63,199.74-175.08a7.57,7.57,0,0,1,14.69,3.66c-22.55,90.48-67.12,156.78-211.4,186.26A7.91,7.91,0,0,1,5364.22,4378.15Z" transform="translate(-191.05 -1651.96)"/><path class="cls-5" d="M5259.71,4133.48q-12.57,0-26-1a7.57,7.57,0,1,1,1.15-15.09c58,4.41,102-6,131-31,26.65-23,41.94-59.52,45.45-108.64a7.67,7.67,0,0,1,8.09-7,7.57,7.57,0,0,1,7,8.09c-3.81,53.29-20.85,93.33-50.66,119C5348.21,4121.52,5309.26,4133.48,5259.71,4133.48Z" transform="translate(-191.05 -1651.96)"/><path class="cls-5" d="M6210.85,4512.9a7.57,7.57,0,0,1-7.35-5.78l-32.11-131.8-115.8-74.15a7.78,7.78,0,0,1-1.4-1.16l-67.44-70.91a7.57,7.57,0,1,1,11-10.43l66.81,70.24,117.58,75.29a7.51,7.51,0,0,1,3.27,4.59l32.83,134.74a7.57,7.57,0,0,1-5.57,9.15A7.37,7.37,0,0,1,6210.85,4512.9Z" transform="translate(-191.05 -1651.96)"/><ellipse class="cls-13" cx="6876.36" cy="4930.7" rx="47.38" ry="32.26" transform="translate(499.59 9052.22) rotate(-78.67)"/><path class="cls-5" d="M6871.56,4985.18a30.6,30.6,0,0,1-6-.6c-21.9-4.39-34.3-31.49-28.26-61.7a7.57,7.57,0,0,1,14.85,3c-4.24,21.16,3.27,41.26,16.38,43.88s27.79-13,32-34.18a7.57,7.57,0,0,1,14.84,3C6909.91,4966,6891.33,4985.18,6871.56,4985.18Z" transform="translate(-191.05 -1651.96)"/><ellipse class="cls-13" cx="6816.78" cy="4930.7" rx="47.38" ry="32.26" transform="translate(-25.92 8430.04) rotate(-73.63)"/><path class="cls-5" d="M6809.87,4984.66a30.63,30.63,0,0,1-8.58-1.23c-21.42-6.29-31.41-34.38-22.73-64a7.57,7.57,0,0,1,14.53,4.27c-6.08,20.7-.37,41.38,12.48,45.15,5.78,1.7,12.48-.24,18.85-5.48,7.21-5.91,12.91-15.06,16-25.76a7.58,7.58,0,0,1,14.54,4.26c-4,13.59-11.44,25.38-21,33.2C6826.38,4981.41,6818,4984.66,6809.87,4984.66Z" transform="translate(-191.05 -1651.96)"/><ellipse class="cls-13" cx="6750.36" cy="4930.7" rx="47.38" ry="32.26" transform="translate(644.96 9186.33) rotate(-81.11)"/><path class="cls-5" d="M6746.57,4985.36a29.77,29.77,0,0,1-4.7-.37c-11.07-1.73-20.33-9.35-26.06-21.47-5.28-11.14-7-25-4.8-39a7.57,7.57,0,1,1,15,2.34c-1.72,11-.48,21.72,3.51,30.15,3.54,7.45,8.77,12.06,14.72,13s12.35-1.86,18-7.88c6.37-6.8,10.83-16.62,12.55-27.63a7.58,7.58,0,0,1,15,2.34c-2.19,14-8,26.65-16.47,35.64C6765.37,4980.9,6756.05,4985.36,6746.57,4985.36Z" transform="translate(-191.05 -1651.96)"/><ellipse class="cls-13" cx="6682.25" cy="4930.7" rx="32.26" ry="47.38" transform="translate(-1643.77 1609.45) rotate(-24.83)"/><path class="cls-5" d="M6692.29,4983.42c-17.36,0-35.9-13.77-46.18-36a7.57,7.57,0,1,1,13.73-6.36c9.07,19.59,27,31.39,39.13,25.76s14.75-26.91,5.69-46.49a7.57,7.57,0,0,1,13.74-6.36c12.93,28,7.2,57.21-13.08,66.6A30.82,30.82,0,0,1,6692.29,4983.42Z" transform="translate(-191.05 -1651.96)"/><ellipse class="cls-13" cx="6615.4" cy="4934.3" rx="32.26" ry="47.38" transform="translate(-1817.49 2854.66) rotate(-33.75)"/><path class="cls-5" d="M6628.3,4985.19a43.16,43.16,0,0,1-16.1-3.34c-11.43-4.62-22.06-13.65-29.92-25.42a7.57,7.57,0,1,1,12.59-8.41c6.19,9.27,14.37,16.3,23,19.79,7.65,3.09,14.61,2.95,19.63-.4,11.13-7.44,10.4-28.88-1.58-46.82a7.57,7.57,0,1,1,12.58-8.41c17.12,25.62,16,55.41-2.59,67.82A31.32,31.32,0,0,1,6628.3,4985.19Z" transform="translate(-191.05 -1651.96)"/><path class="cls-5" d="M6659.4,4693.8a177.79,177.79,0,0,1-45-6.3,7.57,7.57,0,0,1,3.84-14.65c56.56,14.84,97,1.49,123.83-40.77a7.57,7.57,0,0,1,12.79,8.11C6732.25,4675.86,6700.24,4693.8,6659.4,4693.8Z" transform="translate(-191.05 -1651.96)"/><path class="cls-5" d="M6663.16,4666.1a138.33,138.33,0,0,1-29.25-3.1,7.57,7.57,0,0,1,3.19-14.8c31.94,6.87,66.34.88,108.15-18.91a7.57,7.57,0,1,1,6.47,13.68C6718.91,4658.51,6690.1,4666.1,6663.16,4666.1Z" transform="translate(-191.05 -1651.96)"/><path class="cls-5" d="M6748.48,4464.76a7.53,7.53,0,0,1-5.59-2.47l-70.61-77.6a7.57,7.57,0,1,1,11.19-10.19l70.61,77.6a7.56,7.56,0,0,1-5.6,12.66Z" transform="translate(-191.05 -1651.96)"/><path class="cls-5" d="M6748.48,4530a7.57,7.57,0,0,1-7.57-7.57v-65.23a7.58,7.58,0,0,1,15.15,0v65.23A7.57,7.57,0,0,1,6748.48,4530Z" transform="translate(-191.05 -1651.96)"/><path class="cls-5" d="M6511.16,4663.17a7.54,7.54,0,0,1-4.77-1.7l-49-39.78a7.57,7.57,0,1,1,9.54-11.76l49,39.79a7.57,7.57,0,0,1-4.77,13.45Z" transform="translate(-191.05 -1651.96)"/><path class="cls-5" d="M6695.05,4855.2c-23.65,0-48.74-2.49-75.64-7.43a7.57,7.57,0,1,1,2.74-14.89c76.17,14,136.91,7.59,191.19-20.14a7.57,7.57,0,0,1,6.89,13.48C6782.23,4845.64,6741.41,4855.2,6695.05,4855.2Z" transform="translate(-191.05 -1651.96)"/><path class="cls-5" d="M6215.82,4595.62c-53.15,0-106.69-6-172.88-16a7.57,7.57,0,0,1,2.25-15C6186.52,4585.92,6269.27,4589,6416,4553a7.57,7.57,0,0,1,3.61,14.71C6339.28,4587.42,6277.82,4595.62,6215.82,4595.62Z" transform="translate(-191.05 -1651.96)"/><path class="cls-5" d="M4505,4048.44a7.49,7.49,0,0,1-1.69-.19,7.57,7.57,0,0,1-5.7-9.06c14.25-62.57,38.75-108.87,74.91-141.54a7.57,7.57,0,0,1,4.1-1.88L4659,3885a7.57,7.57,0,0,1,1.95,15l-80.06,10.44c-32.83,30.43-55.27,73.66-68.57,132.08A7.57,7.57,0,0,1,4505,4048.44Z" transform="translate(-191.05 -1651.96)"/><path class="cls-5" d="M4547.78,4378.15a7.57,7.57,0,0,1-5-13.26c90.09-79.25,119.56-178.92,90.11-304.68a7.57,7.57,0,1,1,14.74-3.45c30.41,129.87-1.5,237.37-94.86,319.5A7.5,7.5,0,0,1,4547.78,4378.15Z" transform="translate(-191.05 -1651.96)"/><path class="cls-7" d="M4651.35,4099.4q-1.77,109.08,104.41,146.28C4748.13,4140,4709.13,4100.05,4651.35,4099.4Z" transform="translate(-191.05 -1651.96)"/><path class="cls-5" d="M4755.75,4253.25a7.57,7.57,0,0,1-7.54-7c-6.72-93-38.43-138.6-96.95-139.26a7.57,7.57,0,1,1,.18-15.14c67.88.76,104.48,50.91,111.87,153.31a7.56,7.56,0,0,1-7,8.09A5.24,5.24,0,0,1,4755.75,4253.25Z" transform="translate(-191.05 -1651.96)"/><path class="cls-7" d="M4644.54,4211.19q-81.39,98.84-210.5,54.7C4521.75,4177,4589.21,4169.66,4644.54,4211.19Z" transform="translate(-191.05 -1651.96)"/><path class="cls-5" d="M4434,4273.46a7.58,7.58,0,0,1-5.39-12.89c84.25-85.41,156.35-103.53,220.44-55.43a7.57,7.57,0,0,1-9.09,12.11c-57-42.78-122.57-25.11-200.57,53.95A7.57,7.57,0,0,1,4434,4273.46Z" transform="translate(-191.05 -1651.96)"/><path class="cls-7" d="M4564,4348.62q-81.4,98.82-210.5,54.69C4441.25,4314.4,4508.71,4307.08,4564,4348.62Z" transform="translate(-191.05 -1651.96)"/><path class="cls-5" d="M4353.54,4410.88a7.56,7.56,0,0,1-5.39-12.88c84.24-85.4,156.34-103.55,220.44-55.44a7.57,7.57,0,1,1-9.1,12.11c-57-42.74-122.56-25.12-200.56,54A7.56,7.56,0,0,1,4353.54,4410.88Z" transform="translate(-191.05 -1651.96)"/><path class="cls-7" d="M4624.58,4269.51q-38,124.47,71.45,202.14C4722.13,4348,4690.61,4289.31,4624.58,4269.51Z" transform="translate(-191.05 -1651.96)"/><path class="cls-5" d="M4696,4479.23a7.7,7.7,0,0,1-1.57-.17,7.56,7.56,0,0,1-5.84-9c23.17-109.78,1.5-173-66.22-193.33a7.57,7.57,0,0,1,4.34-14.51c76.71,23,101.8,92,76.69,211A7.57,7.57,0,0,1,4696,4479.23Z" transform="translate(-191.05 -1651.96)"/><path class="cls-10" d="M2209.09,2669.8l74.17,111.49c19.59,50.12,116.27,41.52,157.75,7.23l298.16-246.41-57-73.29-300.57,160.83C2339.64,2489.73,2160.85,2546.35,2209.09,2669.8Z" transform="translate(-191.05 -1651.96)"/><path class="cls-10" d="M2728.82,2542.48c43.56,17.68,80.82,19.6,108.8-1.66l20.66-76.52-51.07-57.63-9.63-30.25,9-9.34a73.9,73.9,0,0,0,19.57-62.94h0a17.94,17.94,0,0,0-27.77-11.95c-1.73,15.2-5.32,32.27-17,37.88a14.53,14.53,0,0,0-7.25,6.87l-14.81,32.12-77.79,53.06.91,60.86Z" transform="translate(-191.05 -1651.96)"/><path class="cls-5" d="M2682.36,2490.56a7.57,7.57,0,0,1-7.57-7.46l-.91-60.87a7.59,7.59,0,0,1,3.31-6.37l76.53-52.19c18.24-28.25,37.4-63.1,37.07-71.17a7.57,7.57,0,0,1,7.25-7.87,7.48,7.48,0,0,1,7.87,7.25c.69,16.78-30.69,66.47-40.32,81.31a7.81,7.81,0,0,1-2.08,2.13l-74.43,50.76.85,56.79a7.58,7.58,0,0,1-7.46,7.69Z" transform="translate(-191.05 -1651.96)"/><path class="cls-5" d="M2714,2502.83l74.8,30a21,21,0,0,0,29.59-2.41l195.36-230c7.51-8.83,9.08-22.27-2.41-29.59l-74.79-30c-13.11-7.21-25.51-2.51-33,6.33l-192,226.06A21,21,0,0,0,2714,2502.83Z" transform="translate(-191.05 -1651.96)"/><ellipse class="cls-4" cx="2919.93" cy="2275.94" rx="15.93" ry="11.18" transform="translate(-898.74 1363.04) rotate(-49.45)"/><path class="cls-10" d="M2800.78,2551.4c-2.6-18.54-6.81-55.37-28.11-52.59-7.73-19.63,32.29-55.08,68-78.79,20-2.18,42.47,18.53,66.43,40C2884.29,2494.19,2838.25,2539.65,2800.78,2551.4Z" transform="translate(-191.05 -1651.96)"/><path class="cls-5" d="M2798.69,2542.22a7.56,7.56,0,0,1-7.49-6.52c-2.3-16.41-10.81-29.73-18-29.33a7.66,7.66,0,0,1-7.56-4.78c-11.82-30.05,51.26-74.85,70.87-87.87a7.5,7.5,0,0,1,3.36-1.22c22.82-2.51,46,18.29,70.51,40.31l1.8,1.62a7.57,7.57,0,1,1-10.11,11.26l-1.8-1.62c-21.16-19-41-37.16-57.05-36.63-39.8,26.7-62.11,52-63.84,64.49,14.92,3.93,24.24,23.19,26.83,41.67a7.56,7.56,0,0,1-6.44,8.55A7.65,7.65,0,0,1,2798.69,2542.22Z" transform="translate(-191.05 -1651.96)"/><path class="cls-5" d="M2787.44,2566.41q-35.05,0-74.78-25a7.57,7.57,0,1,1,8.06-12.81c53.81,33.85,98.55,29.61,136.82-12.95a7.57,7.57,0,0,1,11.25,10.13C2844.47,2552.87,2817.26,2566.41,2787.44,2566.41Z" transform="translate(-191.05 -1651.96)"/><path class="cls-10" d="M1845.1,4876.44c17.78-37.23,43.08-69.8,30.41-118.08l123.82-31.74v78.92C1956,4867.48,1908.14,4901.14,1845.1,4876.44Z" transform="translate(-191.05 -1651.96)"/><path class="cls-2" d="M1875.51,4758.36l-21.42-405c-5.87-110.9-8.44-314.53,29-419.08,0,0-140.13-624.11-103.58-919.48l432.72-39.56c29.34,236.24-125.31,945.36-125.31,945.36s-32.82,558.06-71.39,795C2003.65,4788.64,1875.51,4758.36,1875.51,4758.36Z" transform="translate(-191.05 -1651.96)"/><path class="cls-5" d="M2015.54,4723.24a7.37,7.37,0,0,1-1.23-.1,7.55,7.55,0,0,1-6.25-8.68c38.07-233.9,71-788.69,71.3-794.27a7.57,7.57,0,1,1,15.11.89c-.32,5.58-33.27,561.16-71.47,795.81A7.57,7.57,0,0,1,2015.54,4723.24Z" transform="translate(-191.05 -1651.96)"/><path class="cls-4" d="M2310.85,4944.41h0a41.15,41.15,0,0,0-21.92-40.67l-250.31-128.5a41.15,41.15,0,0,0-38.95.5c-33.32,56.51-66,72.06-140.19,72.65-10.93,6.06-28.92,35-31,47.3l-6.12,35.77h0l488.52,12.95Z" transform="translate(-191.05 -1651.96)"/><path class="cls-4" d="M1822.33,4931.46a41.16,41.16,0,0,0,40.38,48.09l407,1.84a41.16,41.16,0,0,0,41.13-37Z" transform="translate(-191.05 -1651.96)"/><path class="cls-5" d="M2310.86,4952h-.21L1822.14,4939a7.57,7.57,0,0,1,.19-15.14h.21l488.51,12.95a7.57,7.57,0,0,1-.19,15.14Z" transform="translate(-191.05 -1651.96)"/><path class="cls-5" d="M2269.72,4989l-407-1.84c-21.06,0-35.34-5.22-43.64-16-13.54-17.55-6.41-44.79-.12-68.82.75-2.86,1.5-5.7,2.2-8.49a7.57,7.57,0,1,1,14.68,3.69c-.71,2.83-1.47,5.72-2.23,8.64-5.41,20.65-11.54,44.07-2.54,55.73,5.16,6.68,15.82,10.07,31.69,10.07l407.05,1.84c17.63,0,29.7-7.25,33.95-20.41,4.4-13.63-1-30.67-12.22-38.79-51.22-37-148-79.79-201.18-102a7.57,7.57,0,1,1,5.84-14c53.75,22.49,151.76,65.88,204.2,103.72,16.54,11.93,24.18,35.89,17.77,55.73C2311.77,4977.7,2294.13,4989,2269.72,4989Z" transform="translate(-191.05 -1651.96)"/><path class="cls-10" d="M1638.89,4876.44c17.79-37.23,43.09-69.8,30.42-118.08l123.82-31.74v78.92C1749.84,4867.48,1701.93,4901.14,1638.89,4876.44Z" transform="translate(-191.05 -1651.96)"/><path class="cls-2" d="M1669.31,4758.36l-21.43-391.3c-5.87-110.9-60.86-351.81-23.42-456.37l8.08-22.56c61-506.3-222.61-698.85,190.4-979.53l214,82.7c29.8,239.95-153.84,943-153.84,943s-36.31,551.25-73.77,781.36C1797.45,4788.64,1669.31,4758.36,1669.31,4758.36Z" transform="translate(-191.05 -1651.96)"/><path class="cls-5" d="M1632.54,3895.7a7.07,7.07,0,0,1-.91-.06,7.57,7.57,0,0,1-6.61-8.42c21.65-179.55.08-316.95-19-438.18-34.35-218.86-57-363.44,212.61-546.7a7.57,7.57,0,1,1,8.51,12.52c-261.72,177.87-239.62,318.68-206.16,531.83,19.18,122.2,40.92,260.71,19,442.34A7.59,7.59,0,0,1,1632.54,3895.7Z" transform="translate(-191.05 -1651.96)"/><path class="cls-5" d="M1883.1,3941.88a7.59,7.59,0,0,1-7.43-9.05c.95-4.83,96.52-486.39,144.1-708a7.57,7.57,0,1,1,14.8,3.18c-47.56,221.48-143.09,702.91-144.06,707.75A7.57,7.57,0,0,1,1883.1,3941.88Z" transform="translate(-191.05 -1651.96)"/><path class="cls-4" d="M2046.74,4944.41h0a41.15,41.15,0,0,0-21.92-40.67l-192.4-128.5a41.15,41.15,0,0,0-39,.5c-33.33,56.51-66,72.06-140.19,72.65-10.94,6.06-28.92,35-31,47.3l-6.12,35.77h0l430.61,12.95Z" transform="translate(-191.05 -1651.96)"/><path class="cls-4" d="M1616.13,4931.46a41.15,41.15,0,0,0,40.38,48.09l349.1,1.84a41.16,41.16,0,0,0,41.13-37Z" transform="translate(-191.05 -1651.96)"/><path class="cls-5" d="M2046.75,4952h-.24L1615.9,4939a7.57,7.57,0,1,1,.46-15.13L2047,4936.84a7.57,7.57,0,0,1-.22,15.14Z" transform="translate(-191.05 -1651.96)"/><path class="cls-5" d="M2005.62,4989l-349.15-1.84c-21.06,0-35.35-5.22-43.64-16-13.55-17.55-6.41-44.79-.12-68.82.75-2.86,1.49-5.7,2.19-8.49a7.57,7.57,0,0,1,14.69,3.69c-.71,2.83-1.47,5.72-2.24,8.64-5.41,20.65-11.54,44.07-2.54,55.73,5.16,6.68,15.82,10.07,31.69,10.07l349.15,1.84c17.63,0,29.71-7.25,34-20.41,4.4-13.63-1-30.67-12.22-38.79-7.54-5.44-15.51-11.3-23.9-17.47-40.37-29.67-90.6-66.6-149.68-98.56a7.57,7.57,0,1,1,7.2-13.31c60,32.46,110.7,69.72,151.44,99.67,8.37,6.15,16.3,12,23.79,17.39,16.54,11.93,24.18,35.89,17.77,55.73C2047.67,4977.7,2030,4989,2005.62,4989Z" transform="translate(-191.05 -1651.96)"/><path class="cls-10" d="M1822.94,2908.6c83.14,83.14,279,187.66,397.26,77.28-27.72-232,57.2-244.66,57.2-244.66s164.9-2.22,151.21-102.2l-62.47-309.79-29.08-81.91-160.84-50.83s-106.92-7.34-190.73,3.63C1765.07,2229,1810.07,2719.67,1822.94,2908.6Z" transform="translate(-191.05 -1651.96)"/><path class="cls-15" d="M1822.94,2908.6c83.14,83.14,279,187.66,397.26,77.28-27.72-232,57.2-244.66,57.2-244.66s103-11.26,102-98.53l-2.82-201.54c-139.78-60.51-310.5-94.07-533.84-102.29C1774.56,2435.61,1794.75,2781.61,1822.94,2908.6Z" transform="translate(-191.05 -1651.96)"/><path class="cls-5" d="M2289.75,2749.52a112.89,112.89,0,0,1-13.21-.78,7.56,7.56,0,1,1,1.73-15c32.78,3.79,54.08-9.23,66.22-20.81,18.56-17.68,29.05-44.39,27.37-69.71l-13.28-313.64a7.58,7.58,0,0,1,7.24-7.89,7.78,7.78,0,0,1,7.88,7.24L2387,2642.37c2,29.5-10.31,60.8-32,81.49C2342.17,2736,2321,2749.52,2289.75,2749.52Z" transform="translate(-191.05 -1651.96)"/><path class="cls-16" d="M2654.51,2131.9c225.94-230.88-139.43-624-288.17-341.34-249.22-62.85-76,207-275,265.66q59.07,57,153.53,25.93l38.86-112.56c82-224.57,301.61-196,305.94-56.33-131.35,105.14-246.93,227.43-305.85,333.92,70.17,29.92,76.42,155.46,76.42,155.46s232.89-118,294.27-270.74Z" transform="translate(-191.05 -1651.96)"/><path class="cls-10" d="M2078.46,2194.22l155.84-127.9-25.17-129.77a186.88,186.88,0,0,1,144.68-179.87l16.18-3.75a186.88,186.88,0,0,1,195.32,74.93h0c43.53,62.22,36.51,192.56-4.64,256.38l27.5,49.54a12,12,0,0,1-3.73,15.68c-21,14.67-44.11,23.07-69.32,24.93L2471,2261c-62.13-17.2-116-47.92-146.43-82.13l-40.76,68.33h0c9.12,96.06-124.27,128.53-160.92,39.27C2107.15,2248.09,2080.5,2219.21,2078.46,2194.22Z" transform="translate(-191.05 -1651.96)"/><path class="cls-16" d="M2596.21,1918.55c9.15-112.08-157.49-135.1-195.82-98.06,0,0,17.85,184.4-95.55,188.72l-53.43,78.23q-94.47,31-153.53-25.93c177.81-67.21,28.22-376.33,272.11-308.58C2493.94,1640.77,2655,1747.55,2596.21,1918.55Z" transform="translate(-191.05 -1651.96)"/><ellipse class="cls-5" cx="2505.9" cy="2052.63" rx="25.6" ry="15.28" transform="translate(-855.35 1065.95) rotate(-51.17)"/><path class="cls-5" d="M2562.53,1985.09a7.56,7.56,0,0,1-6.89-4.42c-3-6.47-10.45-11.29-20.55-13.22-11.92-2.31-24.85.12-30.73,5.73a7.56,7.56,0,1,1-10.45-10.94c9.44-9,27.14-12.89,44-9.66,15,2.87,26.43,10.81,31.45,21.79a7.57,7.57,0,0,1-3.73,10A7.49,7.49,0,0,1,2562.53,1985.09Z" transform="translate(-191.05 -1651.96)"/><path class="cls-5" d="M2311.55,2017.05c-2.4,0-4.83-.1-7.32-.3a7.57,7.57,0,0,1-6.94-8.15,7.49,7.49,0,0,1,8.15-6.93c60.29,4.8,79.86-62.56,85.7-119.94a7.48,7.48,0,0,1,8.31-6.77,7.58,7.58,0,0,1,6.76,8.3C2397.38,1969.91,2363.89,2017.05,2311.55,2017.05Z" transform="translate(-191.05 -1651.96)"/><path class="cls-5" d="M2594.7,1942.47a6.33,6.33,0,0,1-1-.07,7.58,7.58,0,0,1-6.55-8.48c7.11-54.86-21.49-84.46-46.74-99.64-45.34-27.27-109-26.51-135.67-7.61a7.57,7.57,0,0,1-8.75-12.36c30.51-21.64,100.53-24.09,152.23,7,41.15,24.75,60.31,65.43,54,114.57A7.59,7.59,0,0,1,2594.7,1942.47Z" transform="translate(-191.05 -1651.96)"/><path class="cls-5" d="M2187,2108.56c-37.37,0-69.71-13-96.62-39a7.57,7.57,0,0,1,10.52-10.9c37.53,36.22,85.27,44.12,145.9,24.19a7.58,7.58,0,0,1,4.74,14.39Q2217.13,2108.55,2187,2108.56Z" transform="translate(-191.05 -1651.96)"/><path class="cls-5" d="M2370,1760.51a7.37,7.37,0,0,1-2.3-.37,252,252,0,0,0-42.65-10.05,7.57,7.57,0,1,1,2-15,267.21,267.21,0,0,1,45.25,10.64,7.58,7.58,0,0,1-2.31,14.79Z" transform="translate(-191.05 -1651.96)"/><path class="cls-5" d="M2095.61,2071.71a7.58,7.58,0,0,1-2.68-14.66c75.35-28.48,90-104.37,104.11-177.77,11.39-59.15,22.16-115,66.09-136.62a7.57,7.57,0,0,1,6.68,13.59c-37.17,18.27-47.24,70.55-57.9,125.89-14.23,73.87-30.36,157.6-113.62,189.07A7.43,7.43,0,0,1,2095.61,2071.71Z" transform="translate(-191.05 -1651.96)"/><ellipse class="cls-10" cx="2268.57" cy="2033.79" rx="62.26" ry="37.82" transform="translate(-164.85 2444.46) rotate(-84.49)"/><path class="cls-5" d="M2267.07,2110.72a7.55,7.55,0,0,1-3.43-.82c-29.12-14.79-52.77-68.35-38-105,7.67-19,25.1-39.17,45.41-39.17h.62c11.78.23,28.32,7.52,40.26,40.87a7.57,7.57,0,0,1-14.26,5.1c-7-19.68-16.39-30.64-26.3-30.84h-.32c-12.58,0-25.52,15.23-31.38,29.71-11.36,28.09,8.35,74.37,30.8,85.77a7.57,7.57,0,0,1-3.44,14.32Z" transform="translate(-191.05 -1651.96)"/><path class="cls-5" d="M2658.78,2147.39a7.57,7.57,0,0,1-5.41-12.87c90.77-92.75,78.63-193.43,63.32-245.18-27-91.11-102.25-167.41-183.1-185.57-41.6-9.35-102.78-7.52-158,54.21a7.57,7.57,0,1,1-11.29-10.09c46.88-52.44,108.16-73.36,172.57-58.9,86,19.31,165.86,99.93,194.3,196,28.07,94.86,4.26,187.23-67,260.07A7.55,7.55,0,0,1,2658.78,2147.39Z" transform="translate(-191.05 -1651.96)"/><path class="cls-5" d="M2516.78,2044.42a7.63,7.63,0,0,1-2.91-.58c-19.89-8.28-29.14-21.28-27.49-38.66a7.57,7.57,0,1,1,15.07,1.42c-.66,7,.81,16,18.24,23.26a7.57,7.57,0,0,1-2.91,14.56Z" transform="translate(-191.05 -1651.96)"/><path class="cls-5" d="M2362.22,1732.17a7.58,7.58,0,0,1-6.53-11.4c24.78-42.34,64.06-65.49,116.75-68.79a7.57,7.57,0,1,1,.94,15.11c-48,3-82.24,23.07-104.62,61.33A7.58,7.58,0,0,1,2362.22,1732.17Z" transform="translate(-191.05 -1651.96)"/><path class="cls-5" d="M1910.11,2982.84a7.58,7.58,0,0,1-3.95-1.11c-36.58-22.46-66.4-45.27-88.61-67.82a7.57,7.57,0,1,1,10.77-10.63c21.37,21.68,50.22,43.73,85.76,65.54a7.57,7.57,0,0,1-4,14Z" transform="translate(-191.05 -1651.96)"/><path class="cls-4" d="M2516.48,2180.73l-24.1,43c-38-19.22-52.65-52.05-58.5-90C2452.15,2155.7,2477.42,2172.9,2516.48,2180.73Z" transform="translate(-191.05 -1651.96)"/><path class="cls-5" d="M2471.61,2273.46a7.49,7.49,0,0,1-2.92-.58c-61.17-25.6-100.75-45.47-140.59-79.58l-37,60.12a7.57,7.57,0,0,1-12.89-7.94l41.72-67.75a7.56,7.56,0,0,1,11.49-1.66c39.18,35.1,77.29,55,136.57,80.08l14.6-29.63c-17-11.34-60.4-45.3-56.23-93.44a7.57,7.57,0,0,1,13.43-4.11c18.25,22.54,53.43,41.92,72.23,44l4.62-8.78a7.58,7.58,0,0,1,8.4-3.85c19.86,4.57,35.62,3.16,49.59-4.44a7.59,7.59,0,0,0,3.89-5.21,9.39,9.39,0,0,0-1.78-7.64c-15.63-20.79-19.42-56.81-12.26-73.93a7.58,7.58,0,0,1,14,5.85c-4.9,11.68-2.69,41.6,10.38,59a24.54,24.54,0,0,1,4.48,20,22.64,22.64,0,0,1-11.45,15.29c-15.74,8.57-33.61,10.91-54.48,7.08l-4.19,7.95a7.57,7.57,0,0,1-6.35,4c-19.12.86-50.91-14.8-73.81-34.53,7.3,29.36,35.1,52.9,53.18,63.47a7.56,7.56,0,0,1,3,9.88l-20.76,42.13A7.56,7.56,0,0,1,2471.61,2273.46Z" transform="translate(-191.05 -1651.96)"/><path class="cls-5" d="M2427.92,2141.65a90.11,90.11,0,0,1-14.62-1.33,7.57,7.57,0,1,1,2.46-14.94c18,3,25.52-.53,30.92-4.77a7.57,7.57,0,1,1,9.34,11.92C2448.14,2138.71,2439.32,2141.65,2427.92,2141.65Z" transform="translate(-191.05 -1651.96)"/><path class="cls-10" d="M1854.11,2782.11l69.57,97.92c23.65,48.34,94.91,38.95,133.42,1.36l276.83-270.15-62.81-68.35L2013.76,2728C1960.36,2592,1795.85,2663.06,1854.11,2782.11Z" transform="translate(-191.05 -1651.96)"/><path class="cls-5" d="M2224.37,2584.08a7.57,7.57,0,0,1-4.42-13.72l46.75-33.62a7.57,7.57,0,0,1,8.84,12.3l-46.75,33.62A7.57,7.57,0,0,1,2224.37,2584.08Z" transform="translate(-191.05 -1651.96)"/><path class="cls-15" d="M1855,2417.26c-32,109.28-44.66,179.16-.91,364.85-16.22-82.83,88.8-135.56,159.65-54.16l-28.78-357Z" transform="translate(-191.05 -1651.96)"/><path class="cls-5" d="M1923.67,2887.6a7.53,7.53,0,0,1-4.55-1.53c-94.31-71.16-96.31-197.51-98.64-343.81a7.57,7.57,0,0,1,7.45-7.69,7.49,7.49,0,0,1,7.69,7.45c2.35,148.2,4.22,265.26,92.62,332a7.58,7.58,0,0,1-4.57,13.62Z" transform="translate(-191.05 -1651.96)"/><path class="cls-5" d="M1936.51,2789.68a7.57,7.57,0,0,1-4.35-13.77l101.31-71a7.57,7.57,0,0,1,8.7,12.4l-101.32,71A7.58,7.58,0,0,1,1936.51,2789.68Z" transform="translate(-191.05 -1651.96)"/><path class="cls-10" d="M2333.93,2611.24l66.84-95.58L2418.71,2408l1.67-32.72a49.19,49.19,0,0,0-35-49.64h0a49.18,49.18,0,0,0-60.78,31.62l-19.37,58.31-27.42,47.27-6.66,80.08Z" transform="translate(-191.05 -1651.96)"/><path class="cls-5" d="M2271.13,2550.46l-.64,0a7.56,7.56,0,0,1-6.91-8.17l6.66-80.08a7.54,7.54,0,0,1,1-3.17l27-46.6,19.12-57.57a56.49,56.49,0,0,1,70.14-36.48,7.57,7.57,0,1,1-4.35,14.5,41.43,41.43,0,0,0-51.41,26.76l-19.37,58.3a8.23,8.23,0,0,1-.64,1.42l-26.57,45.79-6.52,78.39A7.57,7.57,0,0,1,2271.13,2550.46Z" transform="translate(-191.05 -1651.96)"/><path class="cls-5" d="M2013.76,2735.52a7.57,7.57,0,0,1-7.54-6.94l-24.38-293.23a7.57,7.57,0,1,1,15.08-1.25l24.38,293.22a7.57,7.57,0,0,1-6.91,8.17C2014.18,2735.51,2014,2735.52,2013.76,2735.52Z" transform="translate(-191.05 -1651.96)"/><path class="cls-5" d="M2219.58,2842.73a7.37,7.37,0,0,1-1.32-.12,7.57,7.57,0,0,1-6.15-8.77c9.73-55.26,30.87-88.83,62.84-99.78a7.57,7.57,0,1,1,4.91,14.32c-26.37,9-44.14,38.67-52.83,88.09A7.59,7.59,0,0,1,2219.58,2842.73Z" transform="translate(-191.05 -1651.96)"/><path class="cls-5" d="M3100.16,2287.24a7.57,7.57,0,0,1-1.34-15l118.27-21.33a7.57,7.57,0,0,1,2.69,14.9l-118.27,21.33A7.87,7.87,0,0,1,3100.16,2287.24Z" transform="translate(-191.05 -1651.96)"/><path class="cls-5" d="M3167.89,2427a7.63,7.63,0,0,1-3.39-.8l-107.38-54a7.57,7.57,0,1,1,6.8-13.53l107.38,54a7.57,7.57,0,0,1-3.41,14.33Z" transform="translate(-191.05 -1651.96)"/><path class="cls-5" d="M1817,4680.31l-.68,0a7.57,7.57,0,0,1-6.87-8.22l66.15-738.43a7.57,7.57,0,1,1,15.08,1.35l-66.15,738.44A7.57,7.57,0,0,1,1817,4680.31Z" transform="translate(-191.05 -1651.96)"/><path class="cls-8" d="M7949.59,3499.92l-57.34-80.33S7818.1,3368.53,7791,3428c-43.14,94.71-63.67,225,24.46,280.36,61,38.31,104.9,51,104.9,51Z" transform="translate(-191.05 -1651.96)"/><path class="cls-10" d="M7920.37,3759.41c63.74,16,190.53-37.18,190.69-129.51.15-90.73,20-391.13,20-391.13l-139.05-9c1.27,68.19-20.37,163-52.21,269.71C7901.16,3484.55,7754,3660.4,7920.37,3759.41Z" transform="translate(-191.05 -1651.96)"/><path class="cls-5" d="M7920.37,3767a7.54,7.54,0,0,1-2.37-.39c-45.89-15.17-106.64-41.74-169.68-113.13a7.57,7.57,0,0,1,11.36-10c60.63,68.67,119,94.2,163.07,108.78a7.57,7.57,0,0,1-2.38,14.76Z" transform="translate(-191.05 -1651.96)"/><path class="cls-5" d="M7939.2,3719.09a7.56,7.56,0,0,1-5.36-2.22c-47.75-47.75-25.24-127.69-1.42-212.33,10.47-37.2,21.3-75.66,26.46-112.46a7.57,7.57,0,0,1,15,2.1c-5.29,37.81-16.27,76.78-26.87,114.46-22.59,80.25-43.93,156-2.45,197.53a7.57,7.57,0,0,1-5.35,12.92Z" transform="translate(-191.05 -1651.96)"/><path class="cls-10" d="M8131.1,3238.77l1.95-20.33c26.3,2.11,30.85,5.57,40.41-43l18-83.07c-26.41-41.84-138.39-55.27-189.45-44.66h0l-20.31,33.41-16,18.61a52.88,52.88,0,0,0-12.6,38.61h0c2.76,35.17,38.93,91.42,38.93,91.42Z" transform="translate(-191.05 -1651.96)"/><path class="cls-10" d="M8036.15,3073.59l-54.45,7.58,29.85-196.48a17.31,17.31,0,0,1,19.63-14.54h0a17.32,17.32,0,0,1,14.8,18Z" transform="translate(-191.05 -1651.96)"/><path class="cls-10" d="M8072.09,3103.37l-47.55-28.16,77.51-160.74a17.32,17.32,0,0,1,22.31-8.44l.2.08a17.32,17.32,0,0,1,9.63,21.75Z" transform="translate(-191.05 -1651.96)"/><path class="cls-5" d="M8017,3134.17a7.57,7.57,0,0,1-2.94-14.55l52.84-22.28,12.82-20.71-97.1,12a7.57,7.57,0,1,1-1.87-15l112.8-14a7.58,7.58,0,0,1,7.37,11.5l-22.41,36.21a7.61,7.61,0,0,1-3.5,3L8020,3133.57A7.47,7.47,0,0,1,8017,3134.17Z" transform="translate(-191.05 -1651.96)"/><path class="cls-5" d="M8036.58,3171a7.32,7.32,0,0,1-2.11-.3,7.57,7.57,0,0,1-5.17-9.38c2.37-8.14-3.36-17.84-17-28.83a7.57,7.57,0,1,1,9.49-11.8c18.87,15.18,26.3,30.27,22.08,44.85A7.57,7.57,0,0,1,8036.58,3171Z" transform="translate(-191.05 -1651.96)"/><path class="cls-5" d="M7954.85,3125.08a7.79,7.79,0,0,1-1.9-.24,7.56,7.56,0,0,1-5.44-9.22c4.4-17.14,14.23-30.49,30.06-40.79a7.57,7.57,0,1,1,8.27,12.68c-12.68,8.26-20.2,18.39-23.67,31.88A7.57,7.57,0,0,1,7954.85,3125.08Z" transform="translate(-191.05 -1651.96)"/><path class="cls-10" d="M6919.76,3612.43l-45.89,34.31-455.62-17.15-118.59-77.27-171.47,47.21c15.19,69.49,101.43,134.56,168.91,139.26s119.55-8.1,119.55-8.1,374.72,88.59,429.2,88.59c73.91,0,200.36-42.69,200.36-42.69C6973.61,3749,6938.9,3687.67,6919.76,3612.43Z" transform="translate(-191.05 -1651.96)"/><path class="cls-5" d="M6297.11,3746.37l-.54,0c-67.64-4.72-159.16-69.17-175.78-145.2a7.57,7.57,0,0,1,5.38-8.92l171.48-47.2a7.57,7.57,0,0,1,4,14.6l-164.33,45.23c19,65.73,101.22,122.27,160.27,126.38a7.57,7.57,0,0,1-.51,15.13Z" transform="translate(-191.05 -1651.96)"/><path class="cls-5" d="M7110.7,4988.43a7.57,7.57,0,1,1,0-15.14H8530.52a7.57,7.57,0,0,1,0,15.14Z" transform="translate(-191.05 -1651.96)"/><path class="cls-5" d="M6995.93,4988.43H6166.76a7.57,7.57,0,1,1,0-15.14h829.17a7.57,7.57,0,1,1,0,15.14Z" transform="translate(-191.05 -1651.96)"/><path class="cls-5" d="M8577.56,4988.43a7.57,7.57,0,0,1-7.55-7.18c-4.88-94.95-35.1-175.16-92.4-245.21a7.58,7.58,0,0,1,11.73-9.59c59.4,72.64,90.74,155.73,95.79,254a7.58,7.58,0,0,1-7.17,7.95Z" transform="translate(-191.05 -1651.96)"/><path class="cls-5" d="M8530.52,4988.43a7.59,7.59,0,0,1-7.5-6.55c-13.12-96.37-49.43-160.81-107.94-191.54a7.57,7.57,0,1,1,7-13.4c63.09,33.13,102.09,101.4,115.91,202.9a7.58,7.58,0,0,1-6.49,8.52A7,7,0,0,1,8530.52,4988.43Z" transform="translate(-191.05 -1651.96)"/><path class="cls-5" d="M8717.65,4988.43a7.58,7.58,0,0,1-7.52-6.68c-10.91-91.88,21.73-175.55,99.79-255.78a7.57,7.57,0,1,1,10.85,10.56c-74.68,76.75-106,156.38-95.6,243.43a7.58,7.58,0,0,1-6.62,8.42C8718.24,4988.41,8717.94,4988.43,8717.65,4988.43Z" transform="translate(-191.05 -1651.96)"/><path class="cls-5" d="M8743.17,4988.43a7.23,7.23,0,0,1-1-.07,7.59,7.59,0,0,1-6.48-8.53c8.33-60.92,33.12-103.08,75.77-128.89a7.57,7.57,0,0,1,7.83,13c-38.49,23.28-60.92,61.88-68.59,118A7.58,7.58,0,0,1,8743.17,4988.43Z" transform="translate(-191.05 -1651.96)"/><path class="cls-5" d="M8680.36,4988.43a7.58,7.58,0,0,1-7.54-7C8661,4835,8706.9,4688.82,8809.21,4547a7.57,7.57,0,1,1,12.27,8.86c-100.14,138.81-145.07,281.59-133.56,424.38a7.57,7.57,0,0,1-6.94,8.15Z" transform="translate(-191.05 -1651.96)"/><path class="cls-5" d="M3182.87,4988.43H1390.79a7.57,7.57,0,1,1,0-15.14H3182.87a7.57,7.57,0,0,1,0,15.14Z" transform="translate(-191.05 -1651.96)"/><path class="cls-5" d="M4284.67,4988.43a7.58,7.58,0,0,1-7.56-7.17c-7.14-135.08-100.34-290.35-190.57-424.43a7.57,7.57,0,0,1,12.56-8.45c91.39,135.79,185.8,293.32,193.14,432.08a7.59,7.59,0,0,1-7.17,8Z" transform="translate(-191.05 -1651.96)"/><path class="cls-5" d="M4344.08,4988.43a7.56,7.56,0,0,1-7.55-7.29c-4.47-119.08-38-229-99.79-326.8a7.57,7.57,0,1,1,12.8-8.09c63.19,100.06,97.55,212.54,102.12,334.32a7.57,7.57,0,0,1-7.29,7.85Z" transform="translate(-191.05 -1651.96)"/><path class="cls-5" d="M4409.71,4988.43a8.65,8.65,0,0,1-.88-.05,7.57,7.57,0,0,1-6.64-8.4c9.16-78.22-16.36-183.62-37.23-208.37a7.57,7.57,0,0,1,11.57-9.76c25.48,30.2,49.79,142.25,40.69,219.89A7.57,7.57,0,0,1,4409.71,4988.43Z" transform="translate(-191.05 -1651.96)"/><path class="cls-5" d="M5135.5,4988.43H4521.67a7.57,7.57,0,1,1,0-15.14H5135.5a7.57,7.57,0,0,1,0,15.14Z" transform="translate(-191.05 -1651.96)"/><path class="cls-5" d="M5205.48,4988.43a7.57,7.57,0,0,1-7.57-7.57c0-48.49-6.52-103.91-55-147.33a7.57,7.57,0,1,1,10.1-11.27c52.88,47.39,60,106.77,60,158.6A7.56,7.56,0,0,1,5205.48,4988.43Z" transform="translate(-191.05 -1651.96)"/><path class="cls-5" d="M5250.24,4988.43a7.57,7.57,0,0,1-7.57-7.57c0-49.89,0-101.49-33.52-148.58a7.57,7.57,0,0,1,12.33-8.78c36.33,51,36.33,107.52,36.33,157.36A7.56,7.56,0,0,1,5250.24,4988.43Z" transform="translate(-191.05 -1651.96)"/><path class="cls-5" d="M5349.75,4988.43a7.57,7.57,0,0,1-7.57-7.57c0-118.7,47.09-182.15,98-233a7.57,7.57,0,1,1,10.7,10.71c-48.58,48.59-93.54,109.14-93.54,222.33A7.57,7.57,0,0,1,5349.75,4988.43Z" transform="translate(-191.05 -1651.96)"/><path class="cls-5" d="M5384.42,4988.43a7.56,7.56,0,0,1-7.55-7.32c-1.84-55.78,20-106.86,64.83-151.82a7.57,7.57,0,0,1,10.72,10.69c-41.79,41.89-62.12,89.2-60.43,140.63a7.55,7.55,0,0,1-7.31,7.81Z" transform="translate(-191.05 -1651.96)"/><path class="cls-5" d="M6090.2,4988.43a7.57,7.57,0,0,1-7.55-7.15c-4.2-75.73-32.79-182.32-99.54-233.49a7.57,7.57,0,1,1,9.21-12c70.83,54.3,101.07,165.74,105.44,244.67a7.57,7.57,0,0,1-7.13,8Z" transform="translate(-191.05 -1651.96)"/><path class="cls-5" d="M6135.53,4988.43a7.58,7.58,0,0,1-7.54-7c-6.22-84.07-25.24-147.69-59.83-200.25a7.57,7.57,0,0,1,12.64-8.32c36.07,54.79,55.87,120.71,62.29,207.45a7.57,7.57,0,0,1-7,8.11Z" transform="translate(-191.05 -1651.96)"/><path class="cls-5" d="M6166.76,4988.43h-.06a7.58,7.58,0,0,1-7.51-7.63c.36-47.2,19.1-94.88,55.72-141.71a7.57,7.57,0,0,1,11.93,9.32c-34.51,44.14-52.18,88.73-52.51,132.51A7.56,7.56,0,0,1,6166.76,4988.43Z" transform="translate(-191.05 -1651.96)"/><path class="cls-5" d="M5894.8,4988.43H5384.43a7.57,7.57,0,0,1,0-15.14H5894.8a7.57,7.57,0,0,1,0,15.14Z" transform="translate(-191.05 -1651.96)"/><path class="cls-5" d="M4284.67,4988.43H3266.77a7.57,7.57,0,0,1,0-15.14h1017.9a7.57,7.57,0,1,1,0,15.14Z" transform="translate(-191.05 -1651.96)"/><path class="cls-5" d="M897,4988.43a7.58,7.58,0,0,1-7.56-7.17c-7.14-135.08-100.34-290.35-190.58-424.43a7.57,7.57,0,0,1,12.57-8.45c91.39,135.79,185.8,293.32,193.14,432.08a7.59,7.59,0,0,1-7.17,8Z" transform="translate(-191.05 -1651.96)"/><path class="cls-5" d="M956.38,4988.43a7.56,7.56,0,0,1-7.55-7.29c-4.47-119.08-38.05-229-99.79-326.8a7.57,7.57,0,1,1,12.8-8.09C925,4746.31,959.39,4858.79,964,4980.57a7.55,7.55,0,0,1-7.28,7.85Z" transform="translate(-191.05 -1651.96)"/><path class="cls-5" d="M1022,4988.43c-.29,0-.59,0-.89-.05a7.58,7.58,0,0,1-6.64-8.4c9.17-78.21-16.34-183.61-37.23-208.37a7.57,7.57,0,0,1,11.58-9.76c25.48,30.21,49.79,142.26,40.69,219.89A7.57,7.57,0,0,1,1022,4988.43Z" transform="translate(-191.05 -1651.96)"/><path class="cls-5" d="M1390.8,4988.43h-.43a7.57,7.57,0,0,1-7.13-8c4.36-78.93,34.6-190.37,105.44-244.67a7.57,7.57,0,0,1,9.21,12c-66.77,51.17-95.35,157.76-99.54,233.49A7.57,7.57,0,0,1,1390.8,4988.43Z" transform="translate(-191.05 -1651.96)"/><path class="cls-5" d="M1345.47,4988.43l-.57,0a7.57,7.57,0,0,1-7-8.11c6.41-86.73,26.2-152.65,62.29-207.45a7.57,7.57,0,0,1,12.64,8.32c-34.6,52.56-53.61,116.19-59.83,200.25A7.58,7.58,0,0,1,1345.47,4988.43Z" transform="translate(-191.05 -1651.96)"/><path class="cls-5" d="M1314.24,4988.43a7.57,7.57,0,0,1-7.57-7.51c-.34-43.78-18-88.37-52.51-132.51a7.57,7.57,0,1,1,11.93-9.32c36.61,46.83,55.35,94.51,55.72,141.71a7.58,7.58,0,0,1-7.51,7.63Z" transform="translate(-191.05 -1651.96)"/><path class="cls-5" d="M897,4988.43H198.62a7.57,7.57,0,1,1,0-15.14H897a7.57,7.57,0,0,1,0,15.14Z" transform="translate(-191.05 -1651.96)"/><path class="cls-5" d="M9332.29,4988.43h-483a7.57,7.57,0,1,1,0-15.14h483a7.57,7.57,0,0,1,0,15.14Z" transform="translate(-191.05 -1651.96)"/><path class="cls-5" d="M9287.53,4988.43a7.57,7.57,0,0,1-7.57-7.57c0-48.49-6.53-103.91-55-147.33a7.56,7.56,0,1,1,10.09-11.27c52.89,47.39,60,106.77,60,158.6A7.56,7.56,0,0,1,9287.53,4988.43Z" transform="translate(-191.05 -1651.96)"/><path class="cls-5" d="M9332.29,4988.43a7.57,7.57,0,0,1-7.57-7.57c0-49.89,0-101.49-33.52-148.58a7.57,7.57,0,0,1,12.33-8.78c36.33,51,36.33,107.52,36.33,157.36A7.57,7.57,0,0,1,9332.29,4988.43Z" transform="translate(-191.05 -1651.96)"/><path class="cls-5" d="M9478.63,4988.43a7.56,7.56,0,0,1-7.57-7.57c0-118.7,47.09-182.15,98-233a7.57,7.57,0,1,1,10.71,10.71c-48.59,48.59-93.54,109.14-93.54,222.33A7.57,7.57,0,0,1,9478.63,4988.43Z" transform="translate(-191.05 -1651.96)"/><path class="cls-5" d="M9513.3,4988.43a7.57,7.57,0,0,1-7.56-7.32c-1.84-55.78,20-106.86,64.84-151.82A7.57,7.57,0,0,1,9581.3,4840c-41.79,41.89-62.12,89.2-60.43,140.63a7.56,7.56,0,0,1-7.31,7.81Z" transform="translate(-191.05 -1651.96)"/><path class="cls-5" d="M9801.38,4988.43H9513.31a7.57,7.57,0,1,1,0-15.14h288.07a7.57,7.57,0,1,1,0,15.14Z" transform="translate(-191.05 -1651.96)"/><path class="cls-5" d="M1116.05,4988.43h-94a7.57,7.57,0,1,1,0-15.14h94a7.57,7.57,0,0,1,0,15.14Z" transform="translate(-191.05 -1651.96)"/></svg>