<svg xmlns="http://www.w3.org/2000/svg" viewBox="0 0 1254.23 677.2"><defs><style>.cls-1{fill:#fc6471;}</style></defs><g id="Layer_2" data-name="Layer 2"><g id="Layer_1-2" data-name="Layer 1"><path class="cls-1" d="M30,166.47c3.62-20.92,23.83-121.24,99-156,45.47-21,93-8,188,18,100.76,27.59,105.9,48.09,160,48,74.42-.13,77.18-38.94,164-50,75.41-9.6,89.71,17.6,202,18,71.18.25,71-10.66,128-11,91-.54,253.54,26.32,280,108,17.14,52.91-39.75,76.53-41,192-.51,47.28,8.93,52.3,8,108-1.11,66.86-2,119.24-30,156-61.3,80.45-230.5,57.17-319,45-85.31-11.73-101-28.5-157-19-85,14.42-110.15,63.51-170,52-56.64-10.89-53.35-58.56-114-74-58.51-14.89-76.4,25.71-174,32-35.9,2.32-90.68,5.18-147-24-14.71-7.62-90.66-47-105-119-11.26-56.57,28.05-70.18,38-159C49.28,248.68,17.63,238.05,30,166.47Z"/></g></g></svg>