{
    "asset" : {
        "generator" : "Khronos glTF Blender I/O v1.8.19",
        "version" : "2.0"
    },
    "scene" : 0,
    "scenes" : [
        {
            "name" : "Scene",
            "nodes" : [
                2
            ]
        }
    ],
    "nodes" : [
        {
            "mesh" : 0,
            "name" : "Object_2",
            "scale" : [
                0.01797066442668438,
                0.01797066442668438,
                0.01797066442668438
            ],
            "translation" : [
                0,
                81.60773468017578,
                153.63406372070312
            ]
        },
        {
            "children" : [
                0
            ],
            "name" : "OldComputer.obj"
        },
        {
            "children" : [
                1
            ],
            "name" : "Sketchfab_model",
            "rotation" : [
                -1,
                0,
                0,
                2.220446049250313e-16
            ],
            "translation" : [
                0,
                81.60772705078125,
                153.63404846191406
            ]
        }
    ],
    "materials" : [
        {
            "doubleSided" : true,
            "name" : "material_0",
            "normalTexture" : {
                "index" : 0
            },
            "pbrMetallicRoughness" : {
                "baseColorTexture" : {
                    "index" : 1
                },
                "metallicRoughnessTexture" : {
                    "index" : 2
                }
            }
        }
    ],
    "meshes" : [
        {
            "name" : "Object_0",
            "primitives" : [
                {
                    "attributes" : {
                        "POSITION" : 0,
                        "NORMAL" : 1,
                        "TEXCOORD_0" : 2
                    },
                    "indices" : 3,
                    "material" : 0
                }
            ]
        }
    ],
    "textures" : [
        {
            "sampler" : 0,
            "source" : 0
        },
        {
            "sampler" : 0,
            "source" : 1
        },
        {
            "sampler" : 0,
            "source" : 2
        }
    ],
    "images" : [
        {
            "bufferView" : 4,
            "mimeType" : "image/png",
            "name" : "material_0_normal"
        },
        {
            "bufferView" : 5,
            "mimeType" : "image/png",
            "name" : "material_0_baseColor"
        },
        {
            "bufferView" : 6,
            "mimeType" : "image/png",
            "name" : "material_0_metallicRoughness"
        }
    ],
    "accessors" : [
        {
            "bufferView" : 0,
            "componentType" : 5126,
            "count" : 5224,
            "max" : [
                37.00743865966797,
                28.605308532714844,
                39.925148010253906
            ],
            "min" : [
                -63.40596008300781,
                -42.636390686035156,
                -45.946144104003906
            ],
            "type" : "VEC3"
        },
        {
            "bufferView" : 1,
            "componentType" : 5126,
            "count" : 5224,
            "type" : "VEC3"
        },
        {
            "bufferView" : 2,
            "componentType" : 5126,
            "count" : 5224,
            "type" : "VEC2"
        },
        {
            "bufferView" : 3,
            "componentType" : 5123,
            "count" : 6315,
            "type" : "SCALAR"
        }
    ],
    "bufferViews" : [
        {
            "buffer" : 0,
            "byteLength" : 62688,
            "byteOffset" : 0
        },
        {
            "buffer" : 0,
            "byteLength" : 62688,
            "byteOffset" : 62688
        },
        {
            "buffer" : 0,
            "byteLength" : 41792,
            "byteOffset" : 125376
        },
        {
            "buffer" : 0,
            "byteLength" : 12630,
            "byteOffset" : 167168
        },
        {
            "buffer" : 0,
            "byteLength" : 2000641,
            "byteOffset" : 179800
        },
        {
            "buffer" : 0,
            "byteLength" : 101590,
            "byteOffset" : 2180444
        },
        {
            "buffer" : 0,
            "byteLength" : 12091,
            "byteOffset" : 2282036
        }
    ],
    "samplers" : [
        {
            "magFilter" : 9729,
            "minFilter" : 9987
        }
    ],
    "buffers" : [
        {
            "byteLength" : 2294128,
            "uri" : "data:application/octet-stream;base64,"
        }
    ]
}
